<svg xmlns="http://www.w3.org/2000/svg" width="383.393" height="361.993" viewBox="0 0 383.393 361.993">
  <g id="_404_error_lost_in_space-rafiki" data-name="404 error lost in space-rafiki" transform="translate(-53.275 -79.247)">
    <g id="freepik--Space--inject-11">
      <path id="Path_53" data-name="Path 53" d="M235.41,79.3c84-2.47,193.16,82.18,193,205.61-.07,66.7-102,168.48-204.56,155.14S73.08,340.28,66.36,270.34,108.14,83.05,235.41,79.3Z" fill="#263238"/>
      <path id="Path_54" data-name="Path 54" d="M275.24,111.34c-56.66-8.94-112.82,22.35-111.32,29.37s14.83,1.63,22.8,1.56-34.21,28.35-38.44,44.6,40.07-32.18,80-40,22.6-11.63,19.81-18,39.6-13.61,72.6,3.05,52.61,40.68,61.69,55C382.41,186.87,360.53,124.79,275.24,111.34Z" fill="#fff" opacity="0.1"/>
      <path id="Path_55" data-name="Path 55" d="M260.27,182.46c2.67-13.38,36.8-15.73,62.26,1.75s29.28,36.47,23.65,35.86,23.34,15.1,33.64,52.87-.58,81.61-33.64,106.11c0,0,21.73-22.39,17.8-63.3s-50.43-49.1-59.88-60.3-2.08-28,15.07-30.7,2.59-23.69-16-24.25-33,3.89-35.55.35-49.33,4.54-58.63,40.32-22.73,25.41-14.43,0,62.41-50.62,72.54-52.52S259.65,185.57,260.27,182.46Z" fill="#fff" opacity="0.1"/>
      <path id="Path_56" data-name="Path 56" d="M148,237.41c18.67-8.81-1.2,37.25,4.69,80.82s59,79,97.31,74.78,62.05-56,32.52-75.72c0,0,30,1.49,36.65,32.54s-9,58.94-31.77,60.55-34.68,16.29-43.25,16.07,3.11-4.73-1.68-10.91-38.91-.63-80.13-20-50.07-39.24-57.78-67,8.92,4.37,17.48-.9.67-19.14,1.69-32.7,7-26.54,15.1-17.49S139,241.65,148,237.41Z" fill="#fff" opacity="0.1"/>
    </g>
    <g id="freepik--Stars--inject-11">
      <path id="Path_57" data-name="Path 57" d="M124.31,341.53l.89-1.24-1.24.89-.25-1.51-.25,1.51-1.24-.89.89,1.24-1.51.25,1.51.25-.89,1.24,1.24-.89.25,1.51.25-1.51,1.24.89-.89-1.24,1.51-.25Z" fill="#263238"/>
      <path id="Path_58" data-name="Path 58" d="M391.62,312.83l.9-1.25-1.25.9-.25-1.51-.25,1.51-1.24-.9.89,1.25-1.51.25,1.51.25-.89,1.24,1.24-.89.25,1.51.25-1.51,1.25.89-.9-1.24,1.51-.25Z" fill="#263238"/>
      <path id="Path_59" data-name="Path 59" d="M259.38,362.19l.89-1.24-1.24.89-.25-1.51-.25,1.51-1.25-.89.9,1.24-1.51.25,1.51.25-.9,1.25,1.25-.9.25,1.52.25-1.52,1.24.9-.89-1.25,1.51-.25Z" fill="#263238"/>
      <path id="Path_60" data-name="Path 60" d="M133.9,304.82l1.53-2.14-2.14,1.54-.43-2.6-.43,2.6-2.14-1.54,1.53,2.14-2.6.43,2.6.43-1.53,2.14,2.14-1.53.43,2.6.43-2.6,2.14,1.53-1.53-2.14,2.6-.43Z" fill="#263238"/>
      <path id="Path_61" data-name="Path 61" d="M99.5,237.22l1.53-2.15-2.14,1.54-.43-2.6-.43,2.6-2.14-1.54,1.54,2.15-2.6.43,2.6.42-1.54,2.15,2.14-1.54.43,2.6.43-2.6,2.14,1.54-1.53-2.15,2.6-.42Z" fill="#263238"/>
      <path id="Path_62" data-name="Path 62" d="M275.67,112.87l1.53-2.15-2.14,1.54-.43-2.6-.43,2.6-2.14-1.54,1.54,2.15-2.61.43,2.61.42-1.54,2.15,2.14-1.54.43,2.6.43-2.6,2.14,1.54-1.53-2.15,2.6-.42Z" fill="#263238"/>
      <path id="Path_63" data-name="Path 63" d="M307.25,236.97l1.54-2.15-2.14,1.54-.43-2.6-.43,2.6-2.15-1.54,1.54,2.15-2.6.43,2.6.42-1.54,2.15,2.15-1.54.43,2.6.43-2.6,2.14,1.54-1.54-2.15,2.61-.42Z" fill="#263238"/>
      <path id="Path_64" data-name="Path 64" d="M228.53,117.11l1.54-2.14-2.14,1.53-.43-2.6-.43,2.6-2.14-1.53,1.54,2.14-2.61.43,2.61.43-1.54,2.14,2.14-1.54.43,2.61.43-2.61,2.14,1.54-1.54-2.14,2.61-.43Z" fill="#263238"/>
      <path id="Path_65" data-name="Path 65" d="M232.67,318.29l2.63-3.67-3.67,2.63-.73-4.45-.73,4.45-3.67-2.63,2.63,3.67-4.45.73,4.45.73-2.63,3.67,3.67-2.63.73,4.45.73-4.45,3.67,2.63-2.63-3.67,4.45-.73Z" fill="#263238"/>
      <path id="Path_66" data-name="Path 66" d="M362.11,144.19l-4.45-.73,2.63-3.67-3.67,2.63-.73-4.45-.73,4.45-3.67-2.63,2.63,3.67-4.45.73,4.45.73-2.63,3.67,3.67-2.63.73,4.45.73-4.45,3.67,2.63-2.63-3.67Z" fill="#263238"/>
      <path id="Path_67" data-name="Path 67" d="M222.18,173.5l2.63-3.66-3.67,2.63-.73-4.45-.73,4.45-3.67-2.63,2.63,3.66-4.45.74,4.45.73-2.63,3.67,3.67-2.63.73,4.45.73-4.45,3.67,2.63-2.63-3.67,4.45-.73Z" fill="#263238"/>
      <path id="Path_68" data-name="Path 68" d="M352.36,350.06l2.63-3.67-3.66,2.63-.74-4.45-.73,4.45-3.67-2.63,2.63,3.67-4.45.73,4.45.73-2.63,3.67,3.67-2.63.73,4.45.74-4.45,3.66,2.63-2.63-3.67,4.46-.73Z" fill="#263238"/>
      <path id="Path_69" data-name="Path 69" d="M147.26,156.65l-4.45-.74,2.63-3.66-3.67,2.63-.74-4.45-.73,4.45-3.67-2.63,2.63,3.66-4.45.74,4.45.73-2.63,3.67,3.67-2.63.73,4.45.74-4.45,3.67,2.63-2.63-3.67Z" fill="#263238"/>
      <path id="Path_70" data-name="Path 70" d="M124.01,341.48l1.81.3-1.81.3-.3,1.81-.3-1.81-1.81-.3,1.81-.3.3-1.81Z" fill="#fff" opacity="0.2"/>
      <path id="Path_71" data-name="Path 71" d="M124.13,341.78l1.07,1.49-1.49-1.07-1.49,1.07,1.07-1.49-1.07-1.49,1.49,1.07,1.49-1.07Z" fill="#fff" opacity="0.2"/>
      <path id="Path_72" data-name="Path 72" d="M124.13,341.78a.42.42,0,1,1-.42-.42.42.42,0,0,1,.42.42Z" fill="#fff"/>
      <path id="Path_73" data-name="Path 73" d="M391.32,312.78l1.81.3-1.81.3-.3,1.81-.3-1.81-1.81-.3,1.81-.3.3-1.81Z" fill="#fff" opacity="0.2"/>
      <path id="Path_74" data-name="Path 74" d="M391.44,313.08l1.08,1.49-1.5-1.07-1.49,1.07,1.07-1.49-1.07-1.5,1.49,1.07,1.5-1.07Z" fill="#fff" opacity="0.2"/>
      <path id="Path_75" data-name="Path 75" d="M391.44,313.08a.42.42,0,1,1-.42-.42.42.42,0,0,1,.42.42Z" fill="#fff"/>
      <path id="Path_76" data-name="Path 76" d="M259.08,362.14l1.81.3-1.81.3-.3,1.82-.3-1.82-1.81-.3,1.81-.3.3-1.81Z" fill="#fff" opacity="0.2"/>
      <path id="Path_77" data-name="Path 77" d="M259.2,362.44l1.07,1.5-1.49-1.07-1.5,1.07,1.08-1.5-1.08-1.49,1.5,1.07,1.49-1.07Z" fill="#fff" opacity="0.2"/>
      <path id="Path_78" data-name="Path 78" d="M259.2,362.44a.42.42,0,1,1-.42-.42.42.42,0,0,1,.42.42Z" fill="#fff"/>
      <path id="Path_79" data-name="Path 79" d="M133.37,304.74l3.13.51-3.13.52-.51,3.12-.51-3.12-3.13-.52,3.13-.51.51-3.12Z" fill="#fff" opacity="0.2"/>
      <path id="Path_80" data-name="Path 80" d="M133.59,305.25l1.84,2.57-2.57-1.84-2.57,1.84,1.84-2.57-1.84-2.57,2.57,1.84,2.57-1.84Z" fill="#fff" opacity="0.2"/>
      <circle id="Ellipse_11" data-name="Ellipse 11" cx="0.72" cy="0.72" r="0.72" transform="translate(132.14 304.53)" fill="#fff"/>
      <path id="Path_81" data-name="Path 81" d="M98.98,237.13l3.12.52-3.12.51-.52,3.12-.51-3.12-3.12-.51,3.12-.52.51-3.12Z" fill="#fff" opacity="0.2"/>
      <path id="Path_82" data-name="Path 82" d="M99.19,237.65l1.84,2.57-2.57-1.85-2.57,1.85,1.84-2.57-1.84-2.58,2.57,1.85,2.57-1.85Z" fill="#fff" opacity="0.2"/>
      <path id="Path_83" data-name="Path 83" d="M99.19,237.65a.73.73,0,0,1-.73.72.72.72,0,0,1-.72-.72.725.725,0,1,1,1.45,0Z" fill="#fff"/>
      <path id="Path_84" data-name="Path 84" d="M275.14,112.78l3.13.52-3.13.51-.51,3.12-.51-3.12-3.13-.51,3.13-.52.51-3.12Z" fill="#fff" opacity="0.2"/>
      <path id="Path_85" data-name="Path 85" d="M275.36,113.3l1.84,2.57-2.57-1.85-2.57,1.85,1.84-2.57-1.84-2.58,2.57,1.85,2.57-1.85Z" fill="#fff" opacity="0.2"/>
      <circle id="Ellipse_12" data-name="Ellipse 12" cx="0.72" cy="0.72" r="0.72" transform="translate(273.91 112.58)" fill="#fff"/>
      <path id="Path_86" data-name="Path 86" d="M306.73,236.88l3.13.52-3.13.51-.51,3.12-.52-3.12-3.12-.51,3.12-.52.52-3.12Z" fill="#fff" opacity="0.2"/>
      <path id="Path_87" data-name="Path 87" d="M306.94,237.4l1.85,2.57-2.57-1.85-2.58,1.85,1.85-2.57-1.85-2.58,2.58,1.85,2.57-1.85Z" fill="#fff" opacity="0.2"/>
      <circle id="Ellipse_13" data-name="Ellipse 13" cx="0.72" cy="0.72" r="0.72" transform="translate(305.5 236.68)" fill="#fff"/>
      <path id="Path_88" data-name="Path 88" d="M228.01,117.02l3.13.52-3.13.51-.51,3.13-.51-3.13-3.13-.51,3.13-.52.51-3.12Z" fill="#fff" opacity="0.2"/>
      <path id="Path_89" data-name="Path 89" d="M228.23,117.54l1.84,2.57-2.57-1.84-2.57,1.84,1.84-2.57-1.84-2.57,2.57,1.84,2.57-1.84Z" fill="#fff" opacity="0.2"/>
      <circle id="Ellipse_14" data-name="Ellipse 14" cx="0.72" cy="0.72" r="0.72" transform="translate(226.78 116.82)" fill="#fff"/>
      <path id="Path_90" data-name="Path 90" d="M231.78,318.14l5.34.88-5.34.88-.88,5.34-.88-5.34-5.34-.88,5.34-.88.88-5.34Z" fill="#fff" opacity="0.2"/>
      <path id="Path_91" data-name="Path 91" d="M232.15,319.02l3.15,4.4-4.4-3.16-4.4,3.16,3.16-4.4-3.16-4.4,4.4,3.15,4.4-3.15Z" fill="#fff" opacity="0.2"/>
      <path id="Path_92" data-name="Path 92" d="M232.14,319a1.24,1.24,0,1,1-1.24-1.24A1.24,1.24,0,0,1,232.14,319Z" fill="#fff"/>
      <path id="Path_93" data-name="Path 93" d="M356.77,143.31l5.34.88-5.34.88-.88,5.34-.88-5.34-5.34-.88,5.34-.88.88-5.34Z" fill="#fff" opacity="0.2"/>
      <path id="Path_94" data-name="Path 94" d="M357.13,144.19l3.16,4.4-4.4-3.15-4.4,3.15,3.16-4.4-3.16-4.4,4.4,3.16,4.4-3.16Z" fill="#fff" opacity="0.2"/>
      <path id="Path_95" data-name="Path 95" d="M357.13,144.19a1.24,1.24,0,1,1-1.24-1.24,1.24,1.24,0,0,1,1.24,1.24Z" fill="#fff"/>
      <path id="Path_96" data-name="Path 96" d="M221.29,173.36l5.34.88-5.34.88-.88,5.34-.88-5.34-5.34-.88,5.34-.88.88-5.34Z" fill="#fff" opacity="0.2"/>
      <path id="Path_97" data-name="Path 97" d="M221.66,174.24l3.15,4.4-4.4-3.16-4.4,3.16,3.16-4.4-3.16-4.4,4.4,3.15,4.4-3.15Z" fill="#fff" opacity="0.2"/>
      <path id="Path_98" data-name="Path 98" d="M221.65,174.24a1.24,1.24,0,1,1-1.24-1.24,1.24,1.24,0,0,1,1.24,1.24Z" fill="#fff"/>
      <path id="Path_99" data-name="Path 99" d="M351.47,349.91l5.35.88-5.35.88-.88,5.34-.88-5.34-5.34-.88,5.34-.88.88-5.34Z" fill="#fff" opacity="0.2"/>
      <path id="Path_100" data-name="Path 100" d="M351.84,350.79l3.15,4.4-4.4-3.15-4.4,3.15,3.16-4.4-3.16-4.4,4.4,3.16,4.4-3.16Z" fill="#fff" opacity="0.2"/>
      <path id="Path_101" data-name="Path 101" d="M351.83,350.79a1.24,1.24,0,1,1-1.24-1.24,1.24,1.24,0,0,1,1.24,1.24Z" fill="#fff"/>
      <path id="Path_102" data-name="Path 102" d="M141.91,155.77l5.35.88-5.35.88-.88,5.34-.87-5.34-5.35-.88,5.35-.88.87-5.34Z" fill="#fff" opacity="0.2"/>
      <path id="Path_103" data-name="Path 103" d="M142.28,156.65l3.16,4.4-4.41-3.16-4.4,3.16,3.16-4.4-3.16-4.4,4.4,3.15,4.41-3.15Z" fill="#fff" opacity="0.2"/>
      <path id="Path_104" data-name="Path 104" d="M142.27,156.65a1.24,1.24,0,1,1-1.23-1.24A1.24,1.24,0,0,1,142.27,156.65Z" fill="#fff"/>
      <path id="Path_105" data-name="Path 105" d="M280.06,411.36l-4.45-.73,2.63-3.67-3.67,2.63-.73-4.45-.73,4.45-3.67-2.63,2.63,3.67-4.45.73,4.45.73-2.63,3.67,3.67-2.63.73,4.45.73-4.45,3.67,2.63-2.63-3.67Z" fill="#263238"/>
      <path id="Path_106" data-name="Path 106" d="M274.72,410.48l5.34.88-5.34.88-.88,5.34-.88-5.34-5.34-.88,5.34-.88.88-5.34Z" fill="#fff" opacity="0.2"/>
      <path id="Path_107" data-name="Path 107" d="M275.08,411.36l3.16,4.4-4.4-3.16-4.4,3.16,3.15-4.4-3.15-4.4,4.4,3.15,4.4-3.15Z" fill="#fff" opacity="0.2"/>
      <path id="Path_108" data-name="Path 108" d="M275.08,411.36a1.24,1.24,0,1,1-1.24-1.24,1.24,1.24,0,0,1,1.24,1.24Z" fill="#fff"/>
      <path id="Path_109" data-name="Path 109" d="M84.28,291.5l.9-1.25-1.25.9-.25-1.51-.25,1.51-1.24-.9.89,1.25-1.51.25,1.51.25-.89,1.24,1.24-.89.25,1.51.25-1.51,1.25.89-.9-1.24,1.52-.25Z" fill="#263238"/>
      <path id="Path_110" data-name="Path 110" d="M83.98,291.45l1.82.3-1.82.3-.3,1.81-.29-1.81-1.82-.3,1.82-.3.29-1.81Z" fill="#fff" opacity="0.2"/>
      <path id="Path_111" data-name="Path 111" d="M84.11,291.75l1.07,1.49-1.5-1.07-1.49,1.07,1.07-1.49-1.07-1.5,1.49,1.08,1.5-1.08Z" fill="#fff" opacity="0.2"/>
      <path id="Path_112" data-name="Path 112" d="M84.1,291.75a.42.42,0,1,1-.42-.42.42.42,0,0,1,.42.42Z" fill="#fff"/>
      <path id="Path_113" data-name="Path 113" d="M204.36,267.49l.89-1.25-1.24.89-.25-1.51-.25,1.51-1.24-.89.89,1.25-1.51.24,1.51.25-.89,1.25,1.24-.9.25,1.52.25-1.52,1.24.9-.89-1.25,1.51-.25Z" fill="#263238"/>
      <path id="Path_114" data-name="Path 114" d="M204.06,267.44l1.81.29-1.81.3-.3,1.82-.3-1.82-1.81-.3,1.81-.29.3-1.82Z" fill="#fff" opacity="0.2"/>
      <path id="Path_115" data-name="Path 115" d="M204.18,267.73l1.07,1.5-1.49-1.07-1.49,1.07,1.07-1.5-1.07-1.49,1.49,1.07,1.49-1.07Z" fill="#fff" opacity="0.2"/>
      <path id="Path_116" data-name="Path 116" d="M204.18,267.73a.42.42,0,1,1-.42-.42A.42.42,0,0,1,204.18,267.73Z" fill="#fff"/>
      <path id="Path_117" data-name="Path 117" d="M163.33,213.45l.9-1.24-1.25.89-.25-1.51-.25,1.51-1.24-.89.89,1.24-1.51.25,1.51.25-.89,1.24,1.24-.89.25,1.51.25-1.51,1.25.89-.9-1.24,1.51-.25Z" fill="#263238"/>
      <path id="Path_118" data-name="Path 118" d="M163.03,213.4l1.81.3-1.81.3-.3,1.81-.3-1.81-1.81-.3,1.81-.3.3-1.81Z" fill="#fff" opacity="0.2"/>
      <path id="Path_119" data-name="Path 119" d="M163.16,213.7l1.07,1.49-1.5-1.07-1.49,1.07,1.07-1.49-1.07-1.49,1.49,1.07,1.5-1.07Z" fill="#fff" opacity="0.2"/>
      <path id="Path_120" data-name="Path 120" d="M163.15,213.7a.42.42,0,1,1-.42-.42.42.42,0,0,1,.42.42Z" fill="#fff"/>
    </g>
    <g id="freepik--Planets--inject-11">
      <circle id="Ellipse_15" data-name="Ellipse 15" cx="12.72" cy="12.72" r="12.72" transform="translate(140.16 99.35)" fill="#407bff"/>
      <circle id="Ellipse_16" data-name="Ellipse 16" cx="12.72" cy="12.72" r="12.72" transform="translate(140.16 99.35)" fill="#fff" opacity="0.2"/>
      <path id="Path_121" data-name="Path 121" d="M140.19,113c1.58-.76,2.35-1.38,2.2-.52a9.11,9.11,0,0,0,0,2.25.8.8,0,0,0,1,.28c.74-.22.71-.33,1-.33s2.48.05,1.82.88-.39,1.2-1,1.37-.83,1-.88,1.16a4.29,4.29,0,0,1-.65.71l-1.38.53a12.48,12.48,0,0,0,1.48,1.78,11.691,11.691,0,0,0,1,.89,2.71,2.71,0,0,1,1.21-.4c.71,0,.82.39,1.17.53s.31,0,.31,0,.33.41.69.22a6.23,6.23,0,0,1,1.84,0c.22,0,1.21-.44,1.65-.12s.55.23.6.62a3.08,3.08,0,0,1-.56,1.92,12.39,12.39,0,0,0,4-.28c-.53-.32-.28-2.36-.72-3.24s-.44-1.1-.28-1.48.5,0,.77,0a1,1,0,0,0,.83-.94,6.351,6.351,0,0,1,.27-1.26s.49-.93.72-.93a3.72,3.72,0,0,0,1.1-.06c.21-.11.21-.27.32-.56s.17-1.59-.11-1.53a1.82,1.82,0,0,1-.82-.22,6.3,6.3,0,0,0-1-.2c-.16,0-.22-.51-.22-.51s1-.61,1-.83-.38-.27-.43-.93.49-.66,1.09-.54,0,.26,0,.78.06.47.72,0,.49,0,.66,0a5.87,5.87,0,0,1,1,.17s-.06,1.35,0,2.72,2.08.06,2.69-.44c.29-.23,1.14-.12,1.92.28a12.68,12.68,0,0,0-2-9.93.14.14,0,0,1-.15,0c-.24-.11-1,.11-1.15,0s-.88.16-1.24,0a1.35,1.35,0,0,1-.66-1.18,7.06,7.06,0,0,0-.58-2c-.09-.24-.1-.35,0-.38a12.75,12.75,0,0,0-10.26-1.33c.47.8.82,1.71.33,2.11-1,.77-.43,1.42.24,2a.86.86,0,0,1,0,1.37c-.21.22-.6.77-.24,1s1.15.6.59.93-.23,1.15-1.17.44-.61-1.37-1.32-1.37-.82.82-1.76,1.1-1,.22-1.26.1-.27-.82-.88-1.42a.85.85,0,0,0-1.38.16c-.1.28-.28,1.56,0,1.72s0,1-.6,1.2-1.09-.71-1.29-.14a.49.49,0,0,0,0,.14v.06a12.39,12.39,0,0,0-.23,3.65Zm13.09,6.18c-.88.22,0,0-.92-1s.52-.33.52-.33a12.809,12.809,0,0,0,.4-1.54c.11-.66.93,0,1.39,0s.92.66.38,1.54c0,0,0,.55-.38.44s-.51.62-1.39.84Zm-.4,1.49c.26-.17.89.22.79.93l-.83.22a4.089,4.089,0,0,1-.79-.71c-.24-.37.57-.33.83-.49Zm-6.75-9.79c0-.55.17-1,.61-1,.71-.17.88.5,1.51.56s.36,1.73.36,1.73.22.85-.91.58-1.73-.06-1.84-.47.27-.9.27-1.45Z" fill="#fff" opacity="0.5"/>
      <path id="Path_122" data-name="Path 122" d="M173.15,106.73a1.94,1.94,0,1,1-1.93-1.93,1.94,1.94,0,0,1,1.93,1.93Z" fill="#407bff"/>
      <path id="Path_123" data-name="Path 123" d="M173.15,106.73a1.94,1.94,0,1,1-1.93-1.93,1.94,1.94,0,0,1,1.93,1.93Z" fill="#fff" opacity="0.6"/>
      <circle id="Ellipse_17" data-name="Ellipse 17" cx="0.39" cy="0.39" r="0.39" transform="translate(169.88 107.01)" opacity="0.1"/>
      <path id="Path_124" data-name="Path 124" d="M172.14,106.62a.07.07,0,1,1-.07-.07.07.07,0,0,1,.07.07Z" opacity="0.1"/>
      <path id="Path_125" data-name="Path 125" d="M171.07,108.18a.08.08,0,0,1-.07.07.07.07,0,1,1,0-.14.08.08,0,0,1,.07.07Z" opacity="0.1"/>
      <path id="Path_126" data-name="Path 126" d="M171.76,105.12a.075.075,0,1,1-.08-.07.08.08,0,0,1,.08.07Z" opacity="0.1"/>
      <path id="Path_127" data-name="Path 127" d="M173,106.81a.08.08,0,0,1-.08.07.07.07,0,0,1-.07-.07.08.08,0,0,1,.07-.08A.09.09,0,0,1,173,106.81Z" opacity="0.1"/>
      <path id="Path_128" data-name="Path 128" d="M170,106.2a.07.07,0,1,1-.07-.07A.07.07,0,0,1,170,106.2Z" opacity="0.1"/>
      <path id="Path_129" data-name="Path 129" d="M171,105.66a.25.25,0,1,1-.25-.25A.25.25,0,0,1,171,105.66Z" opacity="0.1"/>
      <path id="Path_130" data-name="Path 130" d="M172.39,107.93a.25.25,0,1,1-.25-.25A.25.25,0,0,1,172.39,107.93Z" opacity="0.1"/>
      <path id="Path_131" data-name="Path 131" d="M426.64,251.2a8.23,8.23,0,1,1-6.24,9.8,8.23,8.23,0,0,1,6.24-9.8Z" fill="#407bff"/>
      <path id="Path_132" data-name="Path 132" d="M426.64,251.2a8.23,8.23,0,1,1-6.24,9.8,8.23,8.23,0,0,1,6.24-9.8Z" fill="#fff" opacity="0.5"/>
      <path id="Path_133" data-name="Path 133" d="M435.81,255.61c-.15.24-.28-.09-.81.18a4.57,4.57,0,0,1-1.64.39l-.12.23c-.11.24-1.12-.15-1.12-.54s0,0,.78-.23,0,0,.07-.56-.22-.31-.54-.7a.52.52,0,0,0-.73-.1c-.24.14-.21.41-.44.47s-.13.2-.23.27-.26,0-.39,0-.3-.11-.38,0a.4.4,0,0,0-.08.2,1.151,1.151,0,0,1-.26,0,.159.159,0,0,1-.13-.13.25.25,0,0,1,0-.1,1,1,0,0,1,.17-.27.26.26,0,0,1,.29-.08.27.27,0,0,0-.08-.26h.32c.08,0,.31-.66.33-.76a.24.24,0,0,0-.11-.21c-.09-.05-.2,0-.31,0s-.34-.31-.55-.28a.52.52,0,0,0-.15.07l-.25.18a.31.31,0,0,0-.11.08.9.9,0,0,0,0,.16.13.13,0,0,1-.09.1c.19,0-.07.19-.11.2-.2.07-.59-.07-.82-.09a.16.16,0,0,1-.12,0,.249.249,0,0,1,0-.09c-.06-.14-.11-.29-.16-.43s-.16-.65.09-.79.53,0,.61-.26a.18.18,0,0,1,.05-.08c.07-.06.15.08.14.18a1.29,1.29,0,0,0,0,.48c.06.16.27.26.39.16-.08-.12.08-.26.22-.26s.3.07.43,0a.32.32,0,0,0,.14-.34.91.91,0,0,0-.17-.36.52.52,0,0,1-.51-.07c-.12-.09-.24-.25-.38-.19a1.459,1.459,0,0,0,.16-.21,2.364,2.364,0,0,0-.28-.12c-.09-.05-.18-.15-.13-.25a.16.16,0,0,1,.07-.07h0a6.841,6.841,0,0,1,1.56.23c-.16.3-.2.85.55,1.12,1.09.39,0,0,1-.54h0a8.11,8.11,0,0,1,2.14,1.48l-.44.32c-.46.31.15.47.15.47h.63c.34,0,.31,0,.33-.07a7.77,7.77,0,0,1,1.02,1.47Z" opacity="0.1"/>
      <path id="Path_134" data-name="Path 134" d="M423.49,256.14a.477.477,0,0,1,0,.12c-.06.21-.37.14-.58.2-.44.14-.33.91-.76,1.11-.21.09-.46,0-.67.09a2.08,2.08,0,0,0-.38.35,1,1,0,0,1-.83.24,8,8,0,0,1,1.79-4.22.669.669,0,0,1,.24,0,.44.44,0,0,1,.29.36,1.419,1.419,0,0,1,0,.5l.32-.24a.31.31,0,0,1,.08.44c-.1.14-.3.16-.48.19s-.38.13-.39.3a.539.539,0,0,0,.19.38c.09.11.18.28.1.4l.7-.41a.43.43,0,0,1,.13-.05.27.27,0,0,1,.25.24Z" opacity="0.2"/>
      <path id="Path_135" data-name="Path 135" d="M424,255.05l-.06.19a.8.8,0,0,0,.55,0,.42.42,0,0,0,.15-.11.6.6,0,0,0,.12-.32,1.7,1.7,0,0,0,0-.45.48.48,0,0,0-.24-.36.29.29,0,0,0-.39.11c-.06.13,0,.29-.07.42s-.2.16-.24.27a.2.2,0,0,0,.18.25Z" opacity="0.2"/>
      <path id="Path_136" data-name="Path 136" d="M427.49,251.67c-.25.21-.65-.07-.95.07s-.24.29-.41.32a2.64,2.64,0,0,1-.28,0c-.1,0-.2.07-.19.16a.23.23,0,0,0,.07.11l.25.23a.7.7,0,0,1,.08.1.21.21,0,0,1-.14.27.54.54,0,0,1-.33,0,.65.65,0,0,1-.2-.05c-.06,0-.1-.13-.06-.19l.07-.07a.27.27,0,0,0,.08-.24.19.19,0,0,0-.19-.17l-.13.06-.43.26c-.2.11-.45.23-.65.13a.11.11,0,0,1-.09-.06v-.13a.289.289,0,0,0,0-.16,7.92,7.92,0,0,1,2.65-1.11,7.208,7.208,0,0,1,.93-.15h0C427.63,251.28,427.65,251.54,427.49,251.67Z" opacity="0.2"/>
      <path id="Path_137" data-name="Path 137" d="M425.8,253.76a.17.17,0,0,0-.23.15l.1.16v-.09c0,.09.11.18.19.11a.21.21,0,0,0,0-.28Z" opacity="0.2"/>
      <path id="Path_138" data-name="Path 138" d="M429.43,256.12c-.13-.14-.36-.09-.56-.07s-.45-.08-.44-.27.21-.24.38-.25a.5.5,0,0,0-.52-.53.62.62,0,0,1,0,.5.3.3,0,0,1-.42.15c-.25-.19.06-.69-.18-.89a.48.48,0,0,0-.41,0,1.536,1.536,0,0,0-1.19.74c0,.05-.4,0-.52,0s-.19.37-.21.5a.28.28,0,0,0,0,.22c0,.08.13.16.09.24s-.1.06-.14.11.26.5.36.55.38,0,.57.09a.44.44,0,0,1,.17.45h-.18a.58.58,0,0,1-.2.68.78.78,0,0,1,.71.22s.09.1.15.1a.22.22,0,0,0,.11-.05.86.86,0,0,0,.4-.54h.2c0-.11,0-.29-.12-.25s0,0-.07.06-.26,0-.27-.17a.62.62,0,0,1,.14-.36c.05-.06.09-.13.14-.2a.76.76,0,0,1,.42-.35c.31-.07.56.26.71.54.06.12.09.31,0,.33s-.14-.05-.19,0,0,.16-.1.21-.11,0-.16,0-.11.23,0,.35.15-.07.23-.12.38.08.56,0,.15-.15.22-.22.54-.23.57-.49-.1-.28-.13-.43S429.62,256.31,429.43,256.12Z" opacity="0.2"/>
      <path id="Path_139" data-name="Path 139" d="M423.53,258.07a.51.51,0,0,0,.25,0c.12,0,.51.11.35.33s-.41-.25-.62-.13c.12,0,.11.23.05.35s-.13.27-.05.38c.16-.07.32.08.5.12s.45-.13.68-.09v-.26c0-.09.17-.07.25-.13s.18-.13.26-.07,0-.2,0-.29a1.514,1.514,0,0,1-.21-.23.218.218,0,0,1,.06-.26.813.813,0,0,1,.27,0,.21.21,0,0,0,.1-.19,1.848,1.848,0,0,1,0-.23h-.19a.16.16,0,0,1-.11.19.49.49,0,0,1-.24,0,1.36,1.36,0,0,0-.09-.69h-.25c0,.1-.11.16-.21.16a.55.55,0,0,1-.25-.13c-.05-.05-.11-.1-.18-.08a.226.226,0,0,0-.12.23c0,.36-.15.27-.3.47a.4.4,0,0,0,.05.55Z" opacity="0.1"/>
      <path id="Path_140" data-name="Path 140" d="M423.7,261.53a1,1,0,0,1-.59-.08c-.08-.05-.18-.11-.27-.06a.23.23,0,0,0-.1.24c0,.08.09.16.12.25a.84.84,0,0,1,0,.74,1.41,1.41,0,0,1-1.12-.26.869.869,0,0,1-.09-.11c-.07-.16.15-.34.11-.5s-.35-.28-.25-.43.19-.06.28-.1a.21.21,0,0,0,.09-.29.53.53,0,0,0-.67.19c-.17,0-.22-.25-.23-.41s-.12-.4-.29-.34a.19.19,0,0,0-.11.15c-.13.38.18.74.46,1a.36.36,0,0,1,.14.23c0,.1-.06.21-.16.19l.35.39a.25.25,0,0,1,.05.13.18.18,0,0,1,0,.09,4.667,4.667,0,0,0-.27.4,7.59,7.59,0,0,1-.72-2,8.482,8.482,0,0,1-.19-1.93.59.59,0,0,1,.22-.2.664.664,0,0,0,.34-.06c.25-.07.36-.39.61-.49a.51.51,0,0,1,.56.16.73.73,0,0,1,.12.61,1,1,0,0,0-.06.5c.1.29.46.32.76.31a.42.42,0,0,0,.23.45.3.3,0,0,0,.39-.25c.19,0,.43.12.43.32a.54.54,0,0,1-.22.3c-.08.1-.15.25-.07.35s.35,0,.42.17S423.83,261.51,423.7,261.53Z" opacity="0.1"/>
      <path id="Path_141" data-name="Path 141" d="M430.22,267.27h-.26a.58.58,0,0,1,.05-.48c.11-.16.31-.27.4-.45a1.87,1.87,0,0,1,.16-.35c.17-.27.57-.25.89-.2a.31.31,0,0,1,.13-.42,1.22,1.22,0,0,1,.5-.08.62.62,0,0,0,.46-.14c0-.05.08-.12.14-.14h.14l.9.11c0-.22-.24-.34-.45-.36s-.46,0-.56-.22a1,1,0,0,1-1.14.43.1.1,0,0,1-.08,0c-.09-.12.22-.27.12-.37l-.43-.17a.2.2,0,0,1-.16-.11.389.389,0,0,1,.09-.33c.09-.11-.05-.44-.11-.66s0-.54.25-.54h.15c.04,0,.1-.16.12-.25.06-.27.33-.43.56-.59a1.618,1.618,0,0,0,.19-.18,1.16,1.16,0,0,0,.36-.78,1.569,1.569,0,0,0-.49.47c-.16.18-.4.33-.61.22a.61.61,0,0,1-.41.66.59.59,0,0,1-.68-.36.23.23,0,0,1,0-.26.42.42,0,0,1,.25,0,.72.72,0,0,0,.66-.34.93.93,0,0,1-.78-.4.6.6,0,0,1,.19-.8h-.2a.65.65,0,0,1,.52-.49h.37a.28.28,0,0,0,.23-.25.44.44,0,0,1-.2-.42.45.45,0,0,1,.26-.31.16.16,0,0,1-.15-.13.23.23,0,0,1,.17-.22.691.691,0,0,1,.32,0,1.07,1.07,0,0,1,.71.34,1,1,0,0,1,.11.57v.78a.85.85,0,0,0,.23.7.66.66,0,0,0,.41.1,3,3,0,0,0,1.22-.25.93.93,0,0,0,.49-.4,1.14,1.14,0,0,0,.1-.61c0-.42.08-1.09-.35-1.35a.38.38,0,0,0-.41,0c-.08.06-.14.15-.23.18s-.29-.05-.41,0-.11.13-.17.21a.19.19,0,0,1-.23.1c-.09-.05,0-.2,0-.31s-.17-.43-.13-.65.25-.34.39-.5a2.112,2.112,0,0,0,.33-.49.363.363,0,0,1,.4.12.42.42,0,0,0,.41.08c.11.14-.06.4.1.51h.07a.24.24,0,0,1,0,.17.511.511,0,0,0,.3.5h.08c.01,0,0,0,0-.06a1,1,0,0,0-.17-.75,1,1,0,0,1-.07-.15.28.28,0,0,1,0-.15.7.7,0,0,1,.06-.17.3.3,0,0,1,0-.1c.07-.06.17,0,.25,0a.6.6,0,0,0,.22-.09.39.39,0,0,1,.32,0c.07.24.14.49.2.74A8.23,8.23,0,0,1,430.22,267.27Z" opacity="0.2"/>
      <path id="Path_142" data-name="Path 142" d="M429,264.68a1.211,1.211,0,0,0,0,.5.85.85,0,0,1-.64.1.89.89,0,0,0,.44,1.11.51.51,0,0,1-.48.09,1.47,1.47,0,0,1-.42-.28l-1-.77c-.16.06-.06.31.1.39s.35.09.43.24,0,.45.09.61a1.61,1.61,0,0,0,.26.15.47.47,0,0,1,.17.49v.13a7.93,7.93,0,0,1-3.58-1.05h0a1.223,1.223,0,0,0,0-.19c0-.3.28-.5.51-.68a.9.9,0,0,0,.44-.72c-.39.1-.54.59-.87.8a1.2,1.2,0,0,1-.28.13,2.879,2.879,0,0,0-.47.3,7.91,7.91,0,0,1-2.07-2.05,1.11,1.11,0,0,0,.22-.75c.09-.11.23.09.36.1s.23-.19.38-.2.21.43.44.51.3-.13.46-.15.35.13.54.07c.55-.17.14-.77.22-1.11.05-.16.25-.19.38-.27a.71.71,0,0,0,.31-.58,2.4,2.4,0,0,0-.11-.66.69.69,0,0,1,.05-.63c.21-.23.62-.08.91-.23s.29-.43.5-.59a1.06,1.06,0,0,1,.65-.19.55.55,0,0,1,.18,0c.11.06.09.23.07.34a5.534,5.534,0,0,1-.31,1c.26.12.62.23.81,0a.7.7,0,0,1,.13-.17.37.37,0,0,1,.34,0c.09.2.19.39.29.57a1.17,1.17,0,0,0-1.17.76.5.5,0,0,1-.08.2.35.35,0,0,1-.28.12,2.67,2.67,0,0,1-.94-.31c-.32-.1-.77,0-.85.28.26-.09.48.18.73.28a1.629,1.629,0,0,0,.45.08,3.379,3.379,0,0,1,1.08.28.72.72,0,0,0,.45-.62,1.33,1.33,0,0,0,1.06.56,1.73,1.73,0,0,0,0,1c.12.24.36.46.35.73A.38.38,0,0,0,429,264.68Z" opacity="0.2"/>
      <path id="Path_143" data-name="Path 143" d="M308.28,92.65a8.81,8.81,0,1,1-6.68,10.52,8.81,8.81,0,0,1,6.68-10.52Z" fill="#407bff"/>
      <path id="Path_144" data-name="Path 144" d="M316.7,98.69a.91.91,0,1,0-.9-.9A.9.9,0,0,0,316.7,98.69Z" opacity="0.2"/>
      <path id="Path_145" data-name="Path 145" d="M313.74,94.3a.91.91,0,0,0,1.81,0h0a9,9,0,0,0-1.24-.79A.91.91,0,0,0,313.74,94.3Z" opacity="0.2"/>
      <path id="Path_146" data-name="Path 146" d="M304,102.7a1.39,1.39,0,1,0,1.39,1.39A1.39,1.39,0,0,0,304,102.7Z" opacity="0.2"/>
      <path id="Path_147" data-name="Path 147" d="M318.59,98.6a9.346,9.346,0,0,0-.51-1.27,1.1,1.1,0,0,0,0,.18A1.4,1.4,0,0,0,318.59,98.6Z" opacity="0.2"/>
      <path id="Path_148" data-name="Path 148" d="M303.38,98.48a1.39,1.39,0,0,0-1-1.32,8.881,8.881,0,0,0-.89,2.63,1.51,1.51,0,0,0,.48.09,1.4,1.4,0,0,0,1.41-1.4Z" opacity="0.2"/>
      <path id="Path_149" data-name="Path 149" d="M317.62,102.37a1.39,1.39,0,0,0,1,1.34A8.863,8.863,0,0,0,319,101a1.38,1.38,0,0,0-1.38,1.37Z" opacity="0.2"/>
      <path id="Path_150" data-name="Path 150" d="M309,96.6a1.4,1.4,0,1,0-.421,1A1.39,1.39,0,0,0,309,96.6Z" opacity="0.2"/>
      <circle id="Ellipse_18" data-name="Ellipse 18" cx="0.9" cy="0.9" r="0.9" transform="translate(312.72 103.84)" opacity="0.2"/>
      <path id="Path_151" data-name="Path 151" d="M317,105.2a.89.89,0,0,0,.63.85,8.87,8.87,0,0,0,.81-1.56.89.89,0,0,0-1.44.71Z" opacity="0.2"/>
      <path id="Path_152" data-name="Path 152" d="M314.64,108.59a1.9,1.9,0,0,0,0,.25,8.91,8.91,0,0,0,2.53-2.24,2,2,0,0,0-2.56,2Z" opacity="0.2"/>
      <path id="Path_153" data-name="Path 153" d="M302.35,101.93a2.06,2.06,0,0,0-.9-1.7,8.869,8.869,0,0,0,.15,2.94.4.4,0,0,0,.07.27A2,2,0,0,0,302.35,101.93Z" opacity="0.2"/>
      <path id="Path_154" data-name="Path 154" d="M306.47,93.39v-.11a8.83,8.83,0,0,0-3.63,3.15,3.309,3.309,0,0,0,.55,0,3.09,3.09,0,0,0,3.08-3.04Z" opacity="0.2"/>
      <path id="Path_155" data-name="Path 155" d="M310.66,93.84a2.07,2.07,0,0,0,1.81-1.1,8.88,8.88,0,0,0-3.71-.17A2,2,0,0,0,310.66,93.84Z" opacity="0.2"/>
      <path id="Path_156" data-name="Path 156" d="M310.2,107.69a.91.91,0,1,0,.9.9A.9.9,0,0,0,310.2,107.69Z" opacity="0.2"/>
      <path id="Path_157" data-name="Path 157" d="M308.25,109.34a.88.88,0,0,0-.68.32,9.921,9.921,0,0,0,1.53.33.88.88,0,0,0-.85-.65Z" opacity="0.2"/>
      <path id="Path_158" data-name="Path 158" d="M304.68,107.21a.9.9,0,0,0-.66.31,8.25,8.25,0,0,0,1.38,1.12.87.87,0,0,0,.19-.52.91.91,0,0,0-.91-.91Z" opacity="0.2"/>
      <path id="Path_159" data-name="Path 159" d="M315.05,99.71a.21.21,0,1,0-.21-.21.22.22,0,0,0,.21.21Z" opacity="0.2"/>
      <path id="Path_160" data-name="Path 160" d="M316.27,96.33a.21.21,0,0,0,0-.42.2.2,0,0,0-.2.21A.21.21,0,0,0,316.27,96.33Z" opacity="0.2"/>
      <path id="Path_161" data-name="Path 161" d="M317.86,99.71a.21.21,0,1,0-.21-.21.21.21,0,0,0,.21.21Z" opacity="0.2"/>
      <path id="Path_162" data-name="Path 162" d="M310.63,94.52a.205.205,0,0,0,0-.41.21.21,0,0,0-.21.21.2.2,0,0,0,.21.2Z" opacity="0.2"/>
      <path id="Path_163" data-name="Path 163" d="M308,98.28a.205.205,0,0,0,0,.41.21.21,0,0,0,.21-.21.2.2,0,0,0-.21-.2Z" opacity="0.2"/>
      <path id="Path_164" data-name="Path 164" d="M306.59,104.09a.207.207,0,1,0-.21.21.21.21,0,0,0,.21-.21Z" opacity="0.2"/>
      <path id="Path_165" data-name="Path 165" d="M303.17,101.73a.21.21,0,1,0,.21-.21.21.21,0,0,0-.21.21Z" opacity="0.2"/>
      <path id="Path_166" data-name="Path 166" d="M312.24,102.72a.21.21,0,1,0,.21-.21.21.21,0,0,0-.21.21Z" opacity="0.2"/>
      <circle id="Ellipse_19" data-name="Ellipse 19" cx="0.21" cy="0.21" r="0.21" transform="translate(312.03 99.97)" opacity="0.2"/>
      <path id="Path_167" data-name="Path 167" d="M314.11,106.53a.207.207,0,1,0,.21.21A.21.21,0,0,0,314.11,106.53Z" opacity="0.2"/>
      <path id="Path_168" data-name="Path 168" d="M304.89,97.09a.21.21,0,1,0-.21-.21A.21.21,0,0,0,304.89,97.09Z" opacity="0.2"/>
      <path id="Path_169" data-name="Path 169" d="M309.29,96.8a.2.2,0,0,0,.21-.2.21.21,0,0,0-.21-.21.205.205,0,0,0,0,.41Z" opacity="0.2"/>
      <path id="Path_170" data-name="Path 170" d="M309.09,107.21a.21.21,0,1,0,.2.21A.21.21,0,0,0,309.09,107.21Z" opacity="0.2"/>
      <path id="Path_171" data-name="Path 171" d="M308.6,104.74a.2.2,0,0,0-.21.2.21.21,0,0,0,.21.21.205.205,0,0,0,0-.41Z" opacity="0.2"/>
      <path id="Path_172" data-name="Path 172" d="M303.58,105.9a.207.207,0,1,0,.21.21.21.21,0,0,0-.21-.21Z" opacity="0.2"/>
      <path id="Path_173" data-name="Path 173" d="M311.58,109.29a.21.21,0,1,0,.21.21A.21.21,0,0,0,311.58,109.29Z" opacity="0.2"/>
      <path id="Path_174" data-name="Path 174" d="M312.72,97.07a.48.48,0,1,0-.48-.47.47.47,0,0,0,.48.47Z" opacity="0.2"/>
      <path id="Path_175" data-name="Path 175" d="M312.72,94.79a.48.48,0,1,0-.48-.47.47.47,0,0,0,.48.47Z" opacity="0.2"/>
      <path id="Path_176" data-name="Path 176" d="M307.57,94.79a.5.5,0,1,0-.5-.5A.5.5,0,0,0,307.57,94.79Z" opacity="0.2"/>
      <path id="Path_177" data-name="Path 177" d="M311.58,107.21a.48.48,0,1,0-.48.48.47.47,0,0,0,.48-.48Z" opacity="0.2"/>
      <path id="Path_178" data-name="Path 178" d="M306.59,107.64a.48.48,0,1,0,.48.48.48.48,0,0,0-.48-.48Z" opacity="0.2"/>
      <circle id="Ellipse_20" data-name="Ellipse 20" cx="0.48" cy="0.48" r="0.48" transform="translate(304.41 105.83)" opacity="0.2"/>
      <path id="Path_179" data-name="Path 179" d="M312.72,108.12a.48.48,0,1,0,.47.47A.47.47,0,0,0,312.72,108.12Z" opacity="0.2"/>
      <path id="Path_180" data-name="Path 180" d="M309.5,102.21a.48.48,0,1,0-.48-.48.49.49,0,0,0,.48.48Z" opacity="0.2"/>
      <path id="Path_181" data-name="Path 181" d="M316.27,103.67a.48.48,0,1,0-.47-.47A.47.47,0,0,0,316.27,103.67Z" opacity="0.2"/>
      <path id="Path_182" data-name="Path 182" d="M305.37,101a.48.48,0,1,0,.47.47A.47.47,0,0,0,305.37,101Z" opacity="0.2"/>
      <circle id="Ellipse_21" data-name="Ellipse 21" cx="0.48" cy="0.48" r="0.48" transform="translate(302.9 99.87)" opacity="0.2"/>
      <path id="Path_183" data-name="Path 183" d="M134.91,370a50.649,50.649,0,0,1,5.24-11.19,48.433,48.433,0,0,1,3.23-4.63,52,52,0,0,1,10.53-10.24h0c.78-.56,1.52-1.08,2.33-1.6a42.351,42.351,0,0,1,5.23-3,36.81,36.81,0,0,1,3.5-1.62,50.226,50.226,0,0,1,5.24-1.88,54.058,54.058,0,0,1,7.23-1.59h0a56.314,56.314,0,0,1,9.15-.54A52.33,52.33,0,0,1,212.28,341h.07a47.88,47.88,0,0,1,6.4,4.46c.95.76,1.86,1.55,2.75,2.37s1.8,1.74,2.66,2.66c.6.62,1.18,1.29,1.76,2,.74.87,1.45,1.77,2.12,2.72a51.461,51.461,0,0,1,4,6.17c.31.6.64,1.2.92,1.8a50.6,50.6,0,0,1,2.56,6.07q.45,1.25.81,2.52a52.51,52.51,0,0,1,2,12c.08,1.43.12,2.85.07,4.29a15.476,15.476,0,0,1-.1,2.16c-.08,1.14-.18,2.28-.32,3.4a53.326,53.326,0,0,1-1.34,6.77,38.648,38.648,0,0,1-1.34,4.28,45.683,45.683,0,0,1-2,4.94,51.4,51.4,0,0,1-4.95,8.3,44.785,44.785,0,0,1-3.59,4.45,52.859,52.859,0,0,1-4.72,4.63,55.483,55.483,0,0,1-5.5,4.16,51.65,51.65,0,0,1-7.63,4.18,50.506,50.506,0,0,1-6.13,2.3h0a50.463,50.463,0,0,1-5,1.26h-.06a52.88,52.88,0,0,1-31.58-3.39h0c-1.4-.6-2.78-1.28-4.1-2-.94-.51-1.88-1.06-2.78-1.62-1.13-.69-2.19-1.43-3.25-2.2-.54-.41-1.08-.81-1.61-1.24a50.248,50.248,0,0,1-5.4-4.91,52.89,52.89,0,0,1-12.36-21,52.111,52.111,0,0,1-2.26-11.89c-.1-1.68-.15-3.4-.11-5.12a45.358,45.358,0,0,1,.36-4.83A49,49,0,0,1,134.91,370Z" fill="#407bff"/>
      <path id="Path_184" data-name="Path 184" d="M134.91,370a50.649,50.649,0,0,1,5.24-11.19,48.433,48.433,0,0,1,3.23-4.63,52,52,0,0,1,10.53-10.24h0c.78-.56,1.52-1.08,2.33-1.6a42.351,42.351,0,0,1,5.23-3,36.81,36.81,0,0,1,3.5-1.62,50.226,50.226,0,0,1,5.24-1.88,54.058,54.058,0,0,1,7.23-1.59h0a56.314,56.314,0,0,1,9.15-.54A52.33,52.33,0,0,1,212.28,341h.07a47.88,47.88,0,0,1,6.4,4.46c.95.76,1.86,1.55,2.75,2.37s1.8,1.74,2.66,2.66c.6.62,1.18,1.29,1.76,2,.74.87,1.45,1.77,2.12,2.72a51.461,51.461,0,0,1,4,6.17c.31.6.64,1.2.92,1.8a50.6,50.6,0,0,1,2.56,6.07q.45,1.25.81,2.52a52.51,52.51,0,0,1,2,12c.08,1.43.12,2.85.07,4.29a15.476,15.476,0,0,1-.1,2.16c-.08,1.14-.18,2.28-.32,3.4a53.326,53.326,0,0,1-1.34,6.77,38.648,38.648,0,0,1-1.34,4.28,45.683,45.683,0,0,1-2,4.94,51.4,51.4,0,0,1-4.95,8.3,44.785,44.785,0,0,1-3.59,4.45,52.859,52.859,0,0,1-4.72,4.63,55.483,55.483,0,0,1-5.5,4.16,51.65,51.65,0,0,1-7.63,4.18,50.506,50.506,0,0,1-6.13,2.3h0a50.463,50.463,0,0,1-5,1.26h-.06a52.88,52.88,0,0,1-31.58-3.39h0c-1.4-.6-2.78-1.28-4.1-2-.94-.51-1.88-1.06-2.78-1.62-1.13-.69-2.19-1.43-3.25-2.2-.54-.41-1.08-.81-1.61-1.24a50.248,50.248,0,0,1-5.4-4.91,52.89,52.89,0,0,1-12.36-21,52.111,52.111,0,0,1-2.26-11.89c-.1-1.68-.15-3.4-.11-5.12a45.358,45.358,0,0,1,.36-4.83A49,49,0,0,1,134.91,370Z" fill="#fff" opacity="0.2"/>
      <path id="Path_185" data-name="Path 185" d="M134.91,370a25.917,25.917,0,0,1,5,.52c2.35.5,4.63,1.38,7,1.82,3,.54,6.11.38,9.14.72s6.21,1.3,8.23,3.62a177.928,177.928,0,0,0-22.1,2.51c-3.19.57-6.39,1.16-9.58,1.46A49,49,0,0,1,134.91,370Z" opacity="0.2"/>
      <path id="Path_186" data-name="Path 186" d="M218.54,390.73a98.762,98.762,0,0,1,13.62-1,55.326,55.326,0,0,1,6.16.46c-.08,1.14-.18,2.28-.32,3.4h-.51A48.521,48.521,0,0,1,218.54,390.73Z" opacity="0.2"/>
      <path id="Path_187" data-name="Path 187" d="M193.31,373.92a5.921,5.921,0,0,1,2.55-.12,59.074,59.074,0,0,0,10.3-.17c3-.24,5.93-.57,8.89-.88a35.323,35.323,0,0,0,6.8-1.18,27.164,27.164,0,0,1,3.71-1.1,15.62,15.62,0,0,1,4.71.29c2,.34,4,.65,6,1a52.51,52.51,0,0,1,2,12,21.248,21.248,0,0,1-4.06-.49c-2.28-.52-4.47-1.5-6.82-1.76-2.08-.22-4.19.12-6.28,0a37.183,37.183,0,0,1-6.54-1.24c-7.49-1.71-15.37-1.71-22.57-4.32a1.78,1.78,0,0,1,1.31-2.03Z" opacity="0.2"/>
      <path id="Path_188" data-name="Path 188" d="M153.91,343.87c.78-.56,1.52-1.08,2.33-1.6a42.356,42.356,0,0,1,5.23-3,36.812,36.812,0,0,1,3.5-1.62,3.084,3.084,0,0,1,.71.18,246.173,246.173,0,0,0,36.19,6.86c6.55.75,13.35,1.3,19.63,3.14.92.86,1.8,1.74,2.66,2.66a125.778,125.778,0,0,0-20.37-3.34c-5.85-.38-11.74-.1-17.56-.66-5.27-.49-10.51-1.68-15.79-1.4-1.17.07-2.34.19-3.52.26a44,44,0,0,1-11.72-1.18,12.8,12.8,0,0,1-1.29-.3Z" opacity="0.2"/>
      <path id="Path_189" data-name="Path 189" d="M186.26,352.12c5.2-1.07,10.61-.57,15.9-.07a123.119,123.119,0,0,0,18.31.75c1.82-.09,3.62-.28,5.45-.33.74.87,1.45,1.77,2.12,2.72a51.46,51.46,0,0,1,4,6.17c.31.6.64,1.2.92,1.8-.55-.07-1.08-.13-1.57-.17-3.12-.25-6.23-.48-9.32-.95a62.428,62.428,0,0,1-7-1.46,37.113,37.113,0,0,1-5.41-1.85c-1.48-.64-2.88-1.4-4.36-2a52.6,52.6,0,0,0-5.31-1.8C195.5,353.58,190.94,352.24,186.26,352.12Z" opacity="0.2"/>
      <path id="Path_190" data-name="Path 190" d="M214.23,357c2.37-.55,4.85,0,7.22-.48.91-.18,1.76-.5,2.66-.73a18.94,18.94,0,0,1,3.93-.63,51.46,51.46,0,0,1,4,6.17,81.4,81.4,0,0,1-8.92-1.24c-1.63-.32-3.27-.68-4.89-1-.93-.21-4.17-.45-4.71-1.11C213.18,357.61,213.77,357.14,214.23,357Z" opacity="0.2"/>
      <path id="Path_191" data-name="Path 191" d="M143.38,354.13a52.66,52.66,0,0,1,5.24-5.82,44.25,44.25,0,0,1,7.78,1.46,36,36,0,0,0,6.25,1.23c2.76.16,5.52-.42,8.29-.48s5.76.45,7.69,2.46c-3.58.22-7.17.46-10.75.67-6.23.36-12.46.61-18.71.58C147.24,354.22,145.31,354.2,143.38,354.13Z" opacity="0.2"/>
      <path id="Path_192" data-name="Path 192" d="M157.76,342.67c-.38-.12-.92-.26-1.52-.4a42.353,42.353,0,0,1,5.23-3,53.58,53.58,0,0,0,8,1.42c4.48.47,9.3.47,13,3.11l-5.81-.63a50,50,0,0,0-11.65-.35,25.533,25.533,0,0,1-4.34.43,13.26,13.26,0,0,1-2.91-.58Z" opacity="0.2"/>
      <path id="Path_193" data-name="Path 193" d="M170.21,335.77a54.063,54.063,0,0,1,7.23-1.59h0a56.318,56.318,0,0,1,9.15-.54A52.33,52.33,0,0,1,212.28,341h.07a47.88,47.88,0,0,1,6.4,4.46c-3.54,0-8.26-1.38-9.79-1.64-4-.69-8.07-1.39-12.09-2.14C187.94,340,179,338,170.21,335.77Z" opacity="0.2"/>
      <path id="Path_194" data-name="Path 194" d="M177.46,334.16a56.314,56.314,0,0,1,9.15-.54A52.329,52.329,0,0,1,212.28,341a7.059,7.059,0,0,0-2.14-.26,15.236,15.236,0,0,0-2.08.33,17,17,0,0,1-2.67-.05,62.492,62.492,0,0,1-10-1.48c-3-.76-5.78-2-8.67-3a63,63,0,0,0-9.26-2.38Z" opacity="0.2"/>
      <path id="Path_195" data-name="Path 195" d="M152.35,398.83c.38-.63,1.22-.78,1.92-1,2.94-.73,5.4-2.69,8.15-3.94,4.41-2,9.39-2.17,14.22-2.31a66.307,66.307,0,0,1,8.1.11,57.1,57.1,0,0,1,7,1.28c5,1.17,9.9,2.57,14.8,4,9,2.63,18,5.41,27.24,7.18a14.24,14.24,0,0,1,1.56.43,45.678,45.678,0,0,1-2,4.94c-3,.11-6.27-.49-9-.56-8.2-.24-16.29,1.82-24.15,4.21a30.3,30.3,0,0,1-7,1.57c-3.23.18-6.4-.73-9.49-1.63-3.6-1.08-7.2-2.16-10.77-3.27a35.16,35.16,0,0,1-5.51-2.1c-1.5-.81-2.89-1.81-4.35-2.7a26.79,26.79,0,0,0-7.6-3.05,6.371,6.371,0,0,1-2.41-.89,1.82,1.82,0,0,1-.71-2.27Z" opacity="0.2"/>
      <path id="Path_196" data-name="Path 196" d="M201.05,408.54a35.481,35.481,0,0,1-9.93.67,59.63,59.63,0,0,1-12.8-1.25,59.5,59.5,0,0,1-9.34-3.44c-1.83-.79-3.77-1.67-4.82-3.36,9.94-6,22.59-5.06,33.9-2.37,6.94,1.65,13.73,3.86,20.51,6.08-.61-.2-3.63,1.46-4.45,1.65a10.62,10.62,0,0,1-3.73,0C207,406.32,204.23,407.71,201.05,408.54Z" opacity="0.2"/>
      <path id="Path_197" data-name="Path 197" d="M134.57,402.44a25.836,25.836,0,0,1,3.61.47c2.08.43,4.54,1.7,4.38,3.82,5-.07,10.41-.05,14.55,2.78-1.94.47-3.88.94-5.82,1.44l49.82,7.89a16.06,16.06,0,0,0,4.42.32c3.13-.29,5.84-2.23,8.89-3,3.75-.9,9.58-.09,13.92,1.67a44.785,44.785,0,0,1-3.59,4.45,52.854,52.854,0,0,1-4.72,4.63,55.48,55.48,0,0,1-5.5,4.16c-10.71-.91-21.2-3.84-31.58-6.76,3.86-.34,7.7-.68,11.56-1,2.12-.2,4.4-.43,6-1.83q-9.39-1.68-18.87-2.55c-3.58-.32-7.19-.56-10.79-.79q-9.27-.57-18.54-1.18a3,3,0,0,0-1.69.19,1.1,1.1,0,0,0-.5,1.47,1.43,1.43,0,0,0,1,.47l5.77,1.32c1.77.4,4,1.57,3.46,3.27-3.28,0-6.59-.11-9.89-.18-1.16,0-2.34,0-3.53-.1a52.889,52.889,0,0,1-12.36-20.96Z" opacity="0.2"/>
      <path id="Path_198" data-name="Path 198" d="M152.33,428.34a37.7,37.7,0,0,1,8.36-.31c6.23.39,12.36,1.82,18.46,3.07a21,21,0,0,0,5,.6c1.88-.06,3.73-.62,5.62-.63,2.95,0,5.73,1.2,8.49,2.2,1.65.59,5.58,1.05,8.67,2a50.5,50.5,0,0,1-6.13,2.3h0a1.376,1.376,0,0,1-.16-.06,47.75,47.75,0,0,0-11.78-2.68c-8.73-1.24-17.53-2.45-26.31-1.81a12.8,12.8,0,0,0-2.53.39c-.94-.51-1.88-1.06-2.78-1.62-1.13-.69-2.19-1.43-3.25-2.2C153.4,429.17,152.86,428.77,152.33,428.34Z" opacity="0.2"/>
      <path id="Path_199" data-name="Path 199" d="M209.2,424.08c4.68-2.43,10.21-2.35,15.55-1.78a52.854,52.854,0,0,1-4.72,4.63,46.257,46.257,0,0,1-10.83-2.85Z" opacity="0.2"/>
      <path id="Path_200" data-name="Path 200" d="M164.09,435.41c7.8-1.36,15.83-.44,23.49,1.42a81.647,81.647,0,0,1,8.09,2,52.88,52.88,0,0,1-31.58-3.39Z" opacity="0.2"/>
      <path id="Path_201" data-name="Path 201" d="M153.94,429.58c.52-.1,1.06-.14,1.59-.19,3.67-.32,7.46-.63,11,.33-2.53-.63-6,.79-9.36,2.06C156.06,431.09,155,430.35,153.94,429.58Z" opacity="0.2"/>
      <path id="Path_202" data-name="Path 202" d="M132.56,380.6a45.36,45.36,0,0,0-.36,4.83c0,1.72,0,3.44.11,5.12a13.431,13.431,0,0,0,3.8.11c5.95-.43,11.88-.85,17.83-1.26-1.91-2.09-5.12-2.18-7.93-1.88s-5.82.83-8.35-.46a24.12,24.12,0,0,1,14.27-4.14c3.48.11,6.93,1,10.36.64,3-.29,6-1.53,9-1.19a24.421,24.421,0,0,1,4.28,1.09c15.18,4.39,32.24-4,47,1.69q-13.7,1.55-27.38,3c3.83,3.46,9.57,3.24,14.67,3.88a38.31,38.31,0,0,1,15.83,5.69,17.24,17.24,0,0,0,5.3,2.73,13.809,13.809,0,0,0,4.49,0c.4,0,.8-.09,1.2-.13a53.329,53.329,0,0,0,1.34-6.77c.14-1.12.24-2.26.32-3.4.06-.71.08-1.43.1-2.16.05-1.44,0-2.86-.07-4.29a52.51,52.51,0,0,0-2-12q-.36-1.28-.81-2.52c-3.67,0-7.39.44-11-.23-1.5-.28-3-.73-4.46-1a33,33,0,0,0-5.07-.37l-34.12-.77c-4.73-.11-9.43-.21-14.12-.76a106.072,106.072,0,0,1,32.05-2.91c1.68.1,3.48.21,4.92-.66-5.12-3.73-12.19-2.3-18.5-3-2.84-.29-5.63-1.06-8.49-1-2.62.06-5.19.76-7.79,1.07a49.809,49.809,0,0,1-8.46.08c-6.75-.29-13.52-.61-20.3-.91A50.649,50.649,0,0,0,134.91,370a49,49,0,0,0-2.35,10.6ZM158,363.24a26.79,26.79,0,0,1,6.53-.92l.78.78a18.62,18.62,0,0,1-11.18,1C155.4,363.78,156.67,363.51,158,363.24Z" opacity="0.2"/>
      <path id="Path_203" data-name="Path 203" d="M345.52,389.59c-16.77,7.73-28.25,18.56-25.65,24.2s18.3,3.94,35.06-3.79,28.25-18.57,25.65-24.2S362.28,381.86,345.52,389.59Zm8.27,17.93c-14.67,6.76-28.27,8.51-30.39,3.91s8.05-13.8,22.71-20.56,28.26-8.52,30.39-3.92-8.05,13.81-22.71,20.57Z" fill="#407bff"/>
      <path id="Path_204" data-name="Path 204" d="M345.52,389.59c-16.77,7.73-28.25,18.56-25.65,24.2s18.3,3.94,35.06-3.79,28.25-18.57,25.65-24.2S362.28,381.86,345.52,389.59Zm8.27,17.93c-14.67,6.76-28.27,8.51-30.39,3.91s8.05-13.8,22.71-20.56,28.26-8.52,30.39-3.92-8.05,13.81-22.71,20.57Z" fill="#fff" opacity="0.6"/>
      <path id="Path_205" data-name="Path 205" d="M345.92,390.46c-13.53,6.24-22.86,14.84-20.84,19.21s14.61,2.86,28.14-3.38,22.86-14.84,20.84-19.21S359.45,384.22,345.92,390.46Zm6.41,13.91c-11.83,5.45-22.75,7-24.4,3.42s6.62-10.88,18.45-16.34,22.75-7,24.4-3.42-6.62,10.88-18.45,16.34Z" fill="#407bff"/>
      <path id="Path_206" data-name="Path 206" d="M345.92,390.46c-13.53,6.24-22.86,14.84-20.84,19.21s14.61,2.86,28.14-3.38,22.86-14.84,20.84-19.21S359.45,384.22,345.92,390.46Zm6.41,13.91c-11.83,5.45-22.75,7-24.4,3.42s6.62-10.88,18.45-16.34,22.75-7,24.4-3.42-6.62,10.88-18.45,16.34Z" fill="#fff" opacity="0.5"/>
      <path id="Path_207" data-name="Path 207" d="M346.32,391.33C335.7,396.23,328.38,403,330,406.42s11.48,2.24,22.1-2.66,17.94-11.64,16.36-15.08S356.94,386.44,346.32,391.33Zm5,10.92c-9.29,4.28-17.87,5.49-19.16,2.69s5.2-8.54,14.48-12.83,17.87-5.48,19.16-2.68-5.15,8.57-14.44,12.82Z" fill="#407bff"/>
      <path id="Path_208" data-name="Path 208" d="M346.32,391.33C335.7,396.23,328.38,403,330,406.42s11.48,2.24,22.1-2.66,17.94-11.64,16.36-15.08S356.94,386.44,346.32,391.33Zm5,10.92c-9.29,4.28-17.87,5.49-19.16,2.69s5.2-8.54,14.48-12.83,17.87-5.48,19.16-2.68-5.15,8.57-14.44,12.82Z" fill="#fff" opacity="0.7"/>
      <circle id="Ellipse_22" data-name="Ellipse 22" cx="15.96" cy="15.96" r="15.96" transform="translate(329.919 409.664) rotate(-70.92)" fill="#407bff"/>
      <path id="Path_209" data-name="Path 209" d="M338.62,388.85h0a16,16,0,0,1,13.07-4.92,7.262,7.262,0,0,1,1.14.15,15.86,15.86,0,0,1,9.45,5.29,11.038,11.038,0,0,1,.77,1,15.639,15.639,0,0,1,1.84,3.2,12.782,12.782,0,0,1,.65,1.82,15.471,15.471,0,0,1,.6,5.62,1.456,1.456,0,0,1,0,.3c-.05.47-.1.92-.19,1.37a15.43,15.43,0,0,1-1.51,4.44,11.727,11.727,0,0,1-.87,1.5,16,16,0,0,1-14.78,7.12,15.451,15.451,0,0,1-5-1.33h0a1.881,1.881,0,0,1-.38-.18,14.62,14.62,0,0,1-4.08-2.81,1.011,1.011,0,0,1-.13-.12,15.089,15.089,0,0,1-3.11-4.19,7.082,7.082,0,0,1-.5-1.09,7.66,7.66,0,0,1-.42-1.05,12.753,12.753,0,0,1-.47-1.74,15.61,15.61,0,0,1-.32-4.85,15.81,15.81,0,0,1,4.24-9.53Z" fill="#fff" opacity="0.2"/>
      <g id="Group_1" data-name="Group 1" opacity="0.2">
        <path id="Path_210" data-name="Path 210" d="M363.42,408.76a15.92,15.92,0,0,1-14.65,6.93,15.349,15.349,0,0,1-4.53-1.11C349.33,414.24,356.83,413.38,363.42,408.76Z" fill="#fff"/>
        <path id="Path_211" data-name="Path 211" d="M350.53,396.67c3.4-1.31,10.29-2.85,13.38-5.05a4.777,4.777,0,0,1,.38.65,35.58,35.58,0,0,0-4.81,4c-3.42,3.12-5.13,6-10.81,6.22S346.74,398.15,350.53,396.67Z" fill="#fff"/>
        <path id="Path_212" data-name="Path 212" d="M340.52,412.47c5-.63,17.06-2.78,25.32-9.3-.13.57-.29,1.12-.47,1.69-5.24,2.67-15,7.83-23.23,8.68a14.167,14.167,0,0,1-1.62-1.07Z" fill="#fff"/>
        <path id="Path_213" data-name="Path 213" d="M336.71,408.26a74,74,0,0,0,9.58-2c6.43-1.92,15.37-6.46,19.49-10a14.2,14.2,0,0,1,.37,2.77c-5.14,3.44-17.56,11-27.9,11.27a14.623,14.623,0,0,1-1.54-2.04Z" fill="#fff"/>
        <path id="Path_214" data-name="Path 214" d="M336.47,391.74a9,9,0,0,1,.74-1.18c4.82-1.43,14.1-3.65,18.33-5.8a13.3,13.3,0,0,1,1.86.79C352.13,386.76,341.2,390.63,336.47,391.74Z" fill="#fff"/>
        <path id="Path_215" data-name="Path 215" d="M335.23,394.3a48.509,48.509,0,0,1,11.28-2.23c2.58,0,10.22-3,12.92-5.3a5.237,5.237,0,0,1,.61.47c-6.62,2.79-14.69,9.68-18.41,11.68a40.778,40.778,0,0,1-7.2,3.07,14.85,14.85,0,0,1-.11-3.66A16.191,16.191,0,0,1,335.23,394.3Z" fill="#fff"/>
      </g>
      <path id="Path_216" data-name="Path 216" d="M334.64,403.18a35.764,35.764,0,0,0,3.44-1c4.37-1.48,12.25-7.85,19.22-10.78,2.62-1.09,4.12-1.72,5-2.06a11.033,11.033,0,0,1,.77,1,53.284,53.284,0,0,1-6.2,3.1c-4.44,1.86-9.18,4.38-11.91,6.66-2.09,1.73-7.37,4-9.83,4.84A12.749,12.749,0,0,1,334.64,403.18Z" opacity="0.2"/>
      <path id="Path_217" data-name="Path 217" d="M335.53,406a102.092,102.092,0,0,1,12.21-2.25c6.92-.8,9.54-3.87,12.37-6.79a19.08,19.08,0,0,1,4.78-3.41,12.78,12.78,0,0,1,.65,1.82A48.182,48.182,0,0,1,355.09,402c-6.55,3.07-15.65,4.56-19.06,5.05a7.08,7.08,0,0,1-.5-1.05Z" opacity="0.2"/>
      <path id="Path_218" data-name="Path 218" d="M339.14,411.25a55.611,55.611,0,0,0,17.27-5.17c4.45-2.19,7.62-3.92,9.73-5.12a1.456,1.456,0,0,1,0,.3c-.05.47-.1.92-.19,1.37-5,2.67-16.56,8.18-26.66,8.74C339.22,411.36,339.18,411.3,339.14,411.25Z" opacity="0.2"/>
      <path id="Path_219" data-name="Path 219" d="M338.62,388.83a16,16,0,0,1,13.07-4.92,7.262,7.262,0,0,1,1.14.15C349.43,385.64,343.12,388.22,338.62,388.83Z" opacity="0.2"/>
      <path id="Path_220" data-name="Path 220" d="M343.35,414.18c4-.95,14.22-3.52,18.57-5.9a21.534,21.534,0,0,1,2.5-1.21,11.718,11.718,0,0,1-.87,1.5c-3.11,1.36-9.12,3.85-12.51,4.4-3,.48-5.68,1-7.29,1.39h0A1.88,1.88,0,0,1,343.35,414.18Z" opacity="0.2"/>
      <path id="Path_221" data-name="Path 221" d="M356.85,386.83s-5.85,3.62-8.48,4.06a32.079,32.079,0,0,1-4.83.45S352,387,356.85,386.83Z" opacity="0.2"/>
      <path id="Path_222" data-name="Path 222" d="M374.39,385.12A3.8,3.8,0,0,1,376.5,387c2.12,4.6-8.05,13.81-22.71,20.57s-28.27,8.51-30.39,3.91a3.76,3.76,0,0,1,0-2.79l-3.59,1.65a4.86,4.86,0,0,0,.08,3.5c2.6,5.64,18.3,3.94,35.06-3.79s28.25-18.57,25.65-24.2a4.8,4.8,0,0,0-2.61-2.33Z" fill="#407bff"/>
      <path id="Path_223" data-name="Path 223" d="M374.39,385.12A3.8,3.8,0,0,1,376.5,387c2.12,4.6-8.05,13.81-22.71,20.57s-28.27,8.51-30.39,3.91a3.76,3.76,0,0,1,0-2.79l-3.59,1.65a4.86,4.86,0,0,0,.08,3.5c2.6,5.64,18.3,3.94,35.06-3.79s28.25-18.57,25.65-24.2a4.8,4.8,0,0,0-2.61-2.33Z" fill="#fff" opacity="0.6"/>
      <path id="Path_224" data-name="Path 224" d="M370,387.13a2.39,2.39,0,0,1,.75.9c1.64,3.57-6.62,10.88-18.45,16.34s-22.75,7-24.4,3.42a2.471,2.471,0,0,1-.2-1.16l-2.9,1.34a3.2,3.2,0,0,0,.25,1.7c2,4.37,14.61,2.86,28.14-3.38s22.86-14.84,20.84-19.21a3.16,3.16,0,0,0-1.13-1.29Z" fill="#407bff"/>
      <path id="Path_225" data-name="Path 225" d="M370,387.13a2.39,2.39,0,0,1,.75.9c1.64,3.57-6.62,10.88-18.45,16.34s-22.75,7-24.4,3.42a2.471,2.471,0,0,1-.2-1.16l-2.9,1.34a3.2,3.2,0,0,0,.25,1.7c2,4.37,14.61,2.86,28.14-3.38s22.86-14.84,20.84-19.21a3.16,3.16,0,0,0-1.13-1.29Z" fill="#fff" opacity="0.5"/>
      <path id="Path_226" data-name="Path 226" d="M365.65,389.15a2.746,2.746,0,0,1,.19.28c1.29,2.8-5.19,8.54-14.48,12.82s-17.87,5.49-19.16,2.69a3.179,3.179,0,0,1-.09-.33l-2.34,1.08a2.251,2.251,0,0,0,.19.73c1.58,3.43,11.48,2.24,22.1-2.66s17.94-11.64,16.36-15.08a2.549,2.549,0,0,0-.42-.61Z" fill="#407bff"/>
      <path id="Path_227" data-name="Path 227" d="M365.65,389.15a2.746,2.746,0,0,1,.19.28c1.29,2.8-5.19,8.54-14.48,12.82s-17.87,5.49-19.16,2.69a3.179,3.179,0,0,1-.09-.33l-2.34,1.08a2.251,2.251,0,0,0,.19.73c1.58,3.43,11.48,2.24,22.1-2.66s17.94-11.64,16.36-15.08a2.549,2.549,0,0,0-.42-.61Z" fill="#fff" opacity="0.7"/>
    </g>
    <g id="freepik--Rocket--inject-11">
      <path id="Path_228" data-name="Path 228" d="M57.14,248.45,53.39,250a6.75,6.75,0,0,0,1.15,5.09,5.62,5.62,0,0,0,4.05,2.09l2.6-5Z" fill="#407bff"/>
      <path id="Path_229" data-name="Path 229" d="M61.19,252.18l-2.61,5A5.42,5.42,0,0,1,55.5,256a5,5,0,0,1-1-.91A6.68,6.68,0,0,1,53.39,250l3.75-1.51Z" fill="#fff" opacity="0.3"/>
      <path id="Path_230" data-name="Path 230" d="M61.19,252.18l-2.61,5A5.42,5.42,0,0,1,55.5,256Z" opacity="0.1"/>
      <path id="Path_231" data-name="Path 231" d="M60.68,253.15,57.31,257s.8,3.17,3.87,3.35S65.42,259,65.42,259l.16-4.37Z" fill="#407bff"/>
      <path id="Path_232" data-name="Path 232" d="M60.68,253.15,57.31,257s.8,3.17,3.87,3.35S65.42,259,65.42,259l.16-4.37Z" fill="#fff" opacity="0.3"/>
      <path id="Path_233" data-name="Path 233" d="M81.26,237.47c-4.36,4.45-10.14,20.91-9.88,23.13s-6.33,6.07-6.33,6.07L62.44,234s4.46-3.89,6.39-4.45,6,3.92,9.32,1.15S81.26,237.47,81.26,237.47Z" fill="#407bff"/>
      <path id="Path_234" data-name="Path 234" d="M71.38,260.61c.15,1.23-1.83,3-3.61,4.27h0c-1.41,1-2.69,1.78-2.69,1.78L62.43,234s2.12-1.84,4.07-3.18a9.53,9.53,0,0,1,2.33-1.27c1.93-.57,6,3.92,9.31,1.15a2.32,2.32,0,0,1,.9-.49c1.2-.24,1.76,1.52,2,3.37h0a27.69,27.69,0,0,1,.21,3.88C76.9,241.92,71.13,258.38,71.38,260.61Z" fill="#fff" opacity="0.5"/>
      <path id="Path_235" data-name="Path 235" d="M71.38,260.61c.15,1.23-1.83,3-3.61,4.27,2.18-2.29,1.91-4.51,2.36-9.24s3.19-14,3.19-14a15.2,15.2,0,0,0-2.65-7.11c-1.56-2.4-3-3.48-4.17-3.7a9.53,9.53,0,0,1,2.33-1.27c1.93-.57,6,3.92,9.31,1.15a2.32,2.32,0,0,1,.9-.49l2,3.37h0a27.69,27.69,0,0,1,.21,3.88C76.9,241.92,71.13,258.38,71.38,260.61Z" opacity="0.1"/>
      <path id="Path_236" data-name="Path 236" d="M57.13,248.46s23-24.64,26.12-26.55,5.4-1.25,5.4-1.25,4.21-1,5.53-.09.29,2.53-2.51,6.37c-5.19,7.12-27.12,28.74-27.12,28.74S57.25,254.28,57.13,248.46Z" fill="#407bff"/>
      <path id="Path_237" data-name="Path 237" d="M92.82,225.33c-.33.49-.72,1-1.14,1.6-5.2,7.13-27.13,28.75-27.13,28.75s-7.31-1.4-7.41-7.23c0,0,23-24.63,26.12-26.53a9.12,9.12,0,0,1,3.32-1.28,5.2,5.2,0,0,1,2.07,0l.5-.12c.32-.06.76-.15,1.26-.23,1.32-.19,3-.3,3.77.25C95.3,221.39,94.72,222.63,92.82,225.33Z" fill="#fff" opacity="0.7"/>
      <path id="Path_238" data-name="Path 238" d="M85.16,226.71l-.53-.4a.91.91,0,0,1-.14-1.31c.84-1,2.21-2.84,2.09-4.36a5.2,5.2,0,0,1,2.07,0l.5-.12c.4,2.1-1.71,4.84-2.76,6a.9.9,0,0,1-1.23.19Z" opacity="0.5"/>
      <path id="Path_239" data-name="Path 239" d="M92.82,225.33a6.67,6.67,0,0,1-2.41-5c1.32-.19,3-.3,3.77.25C95.3,221.39,94.72,222.63,92.82,225.33Z" opacity="0.1"/>
      <g id="Group_2" data-name="Group 2" opacity="0.2">
        <path id="Path_240" data-name="Path 240" d="M66.68,250.32l-.12-.34a1.46,1.46,0,0,0,.92-.45c.36-.36.37-.66.18-.83-.51-.51-1.43,1.08-2.21.31-.32-.31-.35-.83.19-1.38a1.75,1.75,0,0,1,.85-.5l.14.34a1.39,1.39,0,0,0-.73.41c-.35.35-.36.65-.17.83.51.5,1.44-1.08,2.2-.33.33.32.35.85-.2,1.4a1.7,1.7,0,0,1-1.05.54Z"/>
        <path id="Path_241" data-name="Path 241" d="M69.53,245.17a1.06,1.06,0,0,1-.13,1.6l-.51.51.64.63-.3.3-2.09-2.06.8-.82a1.06,1.06,0,0,1,1.59-.16Zm-.29.3c-.3-.29-.67-.26-1,.12l-.5.51.94.93.5-.51C69.51,246.13,69.53,245.77,69.24,245.47Z"/>
        <path id="Path_242" data-name="Path 242" d="M72.31,244l-1.1,1.12.3.74-.3.31-1.17-3,.3-.3,3,1.1-.31.32Zm-.34-.13-1.48-.55.59,1.46Z"/>
        <path id="Path_243" data-name="Path 243" d="M72.73,242.55a1.49,1.49,0,0,1,0-2.16,1.45,1.45,0,0,1,1.11-.48v.38a1.16,1.16,0,1,0,.78,1.93,1.09,1.09,0,0,0,.33-.84h.38a1.43,1.43,0,0,1-.46,1.13,1.48,1.48,0,0,1-2.14.04Z"/>
        <path id="Path_244" data-name="Path 244" d="M77.6,239.16l.26.26-1.5,1.52-2.09-2.06,1.45-1.48.26.26-1.16,1.18.65.63,1-1.05.25.25-1,1.05.68.67Z"/>
        <path id="Path_245" data-name="Path 245" d="M79.26,236.73a1,1,0,0,1-.13,1.44,1.63,1.63,0,0,1-1,.52l-.1-.37a1.29,1.29,0,0,0,.84-.41c.31-.32.34-.64.12-.86s-.53-.23-1,.26l-.47.47-1-1.19,1.17-1.18.26.26-.92.93.52.62.23-.23C78.38,236.36,78.89,236.37,79.26,236.73Z"/>
        <path id="Path_246" data-name="Path 246" d="M79.79,233.25l.21.2,1.06,2.71-.32.32-1-2.63-.94,1,.38.37-.28.29-.64-.62Z"/>
      </g>
      <path id="Path_247" data-name="Path 247" d="M81.44,229.07l.72-.75a.89.89,0,0,1,1.21-.06L85.48,230a.88.88,0,0,1,.06,1.3l-.78.8a.89.89,0,0,1-1.23,0l-2-1.82A.89.89,0,0,1,81.44,229.07Z" opacity="0.1"/>
    </g>
    <g id="freepik--Number--inject-11">
      <path id="Path_248" data-name="Path 248" d="M182.22,289.79l-10.29,2.78,3.6,13.3-7.5,2-3.6-13.3-30.08,8.15-1.46-5.42L151,254.42l8.35-2.26-17.27,41.36,20.8-5.63-3.18-11.75,7.27-2,3.18,11.75,10.29-2.78Z" fill="#407bff"/>
      <path id="Path_249" data-name="Path 249" d="M183.13,274.77c-4.78-17.63,1.94-30.24,14.62-33.67s24.76,4.09,29.53,21.72-1.94,30.23-14.55,33.64S187.9,292.4,183.13,274.77Zm36.42-9.86C215.8,251.07,208,245.7,199.61,248s-12.5,10.85-8.75,24.69,11.51,19.21,20,16.91S223.29,278.75,219.55,264.91Z" fill="#407bff"/>
      <path id="Path_250" data-name="Path 250" d="M285.51,261.82l-10.28,2.79,3.6,13.3-7.5,2-3.6-13.3-30.08,8.14-1.47-5.41,18.1-42.91,8.35-2.26-17.27,41.36,20.8-5.64L263,248.17l7.27-2L273.43,258l10.28-2.79Z" fill="#407bff"/>
    </g>
    <g id="freepik--Text--inject-11">
      <path id="Path_251" data-name="Path 251" d="M149.44,231.34l1.32,4.84-20.2,5.47-7.06-26.09,19.71-5.33,1.31,4.84-13.71,3.71,1.53,5.67,12.11-3.28,1.27,4.69-12.11,3.28,1.64,6Z" fill="#407bff"/>
      <path id="Path_252" data-name="Path 252" d="M172.18,230.38l-7-5.91-.3.09L159.63,226l2,7.27-6,1.63-7.06-26.09,11.29-3c7-1.89,12.31.55,13.89,6.4a8.78,8.78,0,0,1-3.13,9.68l8.12,6.81Zm-11.39-19.63-4.92,1.33,2.46,9.09,4.92-1.33c3.69-1,5.09-3.22,4.32-6.05S164.48,209.75,160.79,210.75Z" fill="#407bff"/>
      <path id="Path_253" data-name="Path 253" d="M199.57,223l-7-5.91-.3.08L187,218.56l2,7.27-6,1.64-7.06-26.09,11.29-3.06c7-1.88,12.31.55,13.89,6.4a8.8,8.8,0,0,1-3.13,9.69l8.12,6.8Zm-11.39-19.64-4.92,1.33,2.46,9.1,4.92-1.33c3.69-1,5.09-3.22,4.32-6.05s-3.09-4.08-6.78-3.08Z" fill="#407bff"/>
      <path id="Path_254" data-name="Path 254" d="M205.17,207.45c-2.1-7.75,2.39-15.12,10.62-17.35s15.82,1.84,17.93,9.62-2.43,15.14-10.62,17.36S207.27,215.2,205.17,207.45Zm22.43-6.07a8.46,8.46,0,1,0-5.9,10.56,8.24,8.24,0,0,0,5.9-10.56Z" fill="#407bff"/>
      <path id="Path_255" data-name="Path 255" d="M258.41,207l-7-5.91-.3.08-5.26,1.42,2,7.27-6,1.64-7.06-26.09L246,182.39c7-1.88,12.31.55,13.89,6.4a8.78,8.78,0,0,1-3.13,9.69l8.12,6.8ZM247,187.4l-4.92,1.34,2.46,9.09,4.92-1.33c3.69-1,5.09-3.22,4.32-6.05S250.71,186.41,247,187.4Z" fill="#407bff"/>
    </g>
    <g id="freepik--speech-bubble--inject-11">
      <path id="Path_256" data-name="Path 256" d="M327.79,368.62H285.05a8.84,8.84,0,0,1-8.84-8.85v-15a8.84,8.84,0,0,1,8.84-8.84h28.4l7-8.9-1,8.9h8.39a8.84,8.84,0,0,1,8.85,8.84v15a8.85,8.85,0,0,1-8.9,8.85Z" fill="#407bff"/>
      <path id="Path_257" data-name="Path 257" d="M287.14,351.55a5.07,5.07,0,1,1,5.09,4.88,4.86,4.86,0,0,1-5.09-4.88Zm8.78,0a3.71,3.71,0,1,0-3.69,3.67,3.58,3.58,0,0,0,3.69-3.67Z" fill="#fff"/>
      <path id="Path_258" data-name="Path 258" d="M298.51,352.71a3.75,3.75,0,1,1,3.76,3.69,3.59,3.59,0,0,1-3.76-3.69Zm6.18,0a2.43,2.43,0,1,0-2.43,2.43,2.43,2.43,0,0,0,2.43-2.43Z" fill="#fff"/>
      <path id="Path_259" data-name="Path 259" d="M315.31,352.71a3.51,3.51,0,0,1-3.66,3.69,3.07,3.07,0,0,1-2.52-1.17V359h-1.31v-9.9h1.26v1.15a3.05,3.05,0,0,1,2.57-1.22,3.51,3.51,0,0,1,3.66,3.68Zm-1.33,0a2.43,2.43,0,1,0-2.44,2.55,2.39,2.39,0,0,0,2.46-2.55Z" fill="#fff"/>
      <path id="Path_260" data-name="Path 260" d="M316.2,355.56l.55-1a4.59,4.59,0,0,0,2.53.75c1.22,0,1.72-.36,1.72-1,0-1.62-4.56-.22-4.56-3.09,0-1.3,1.15-2.17,3-2.17a5.25,5.25,0,0,1,2.63.66l-.56,1a3.82,3.82,0,0,0-2.09-.57c-1.14,0-1.7.42-1.7,1,0,1.71,4.58.32,4.58,3.12,0,1.31-1.2,2.14-3.12,2.14a5.21,5.21,0,0,1-2.98-.84Z" fill="#fff"/>
      <path id="Path_261" data-name="Path 261" d="M323.64,355.53a.87.87,0,1,1,.265.626.87.87,0,0,1-.265-.626Zm.13-8.75h1.53l-.25,6.53h-1Z" fill="#fff"/>
    </g>
    <g id="freepik--Character--inject-11">
      <path id="Path_262" data-name="Path 262" d="M347.89,246.78l31.92-2.31.28-1.25c1-4.92,4.78-23.4,4.19-35.15a24.719,24.719,0,0,0-.95-6.18c-3.9-12.12-42.18-36.55-42.18-36.55L339.29,180l22.5,28.18C354.88,223.76,347.89,246.78,347.89,246.78Z" fill="#407bff"/>
      <path id="Path_263" data-name="Path 263" d="M347.89,246.78l31.92-2.31.28-1.25c1-4.92,4.78-23.4,4.19-35.15a24.719,24.719,0,0,0-.95-6.18c-3.9-12.12-42.18-36.55-42.18-36.55L339.29,180l22.5,28.18C354.88,223.76,347.89,246.78,347.89,246.78Z" fill="#fff" opacity="0.7"/>
      <path id="Path_264" data-name="Path 264" d="M322.16,287.11c-4,2.73-8,5.66-12,8.46-2,1.43-4,2.8-5.92,4.15s-3.92,2.64-5.66,3.67c-.42.26-.85.5-1.17.68s-.57.28-.51.32a1.418,1.418,0,0,1,.36,0h-.21l-.82.15-1.69.31c-2.29.42-4.7.76-7.12,1.16-4.84.77-9.82,1.52-14.75,2.62h-.09a4.58,4.58,0,0,0-.12,8.9,103.066,103.066,0,0,0,15.35,2.55c2.59.25,5.21.38,7.92.43h3.83c.43-.06.86-.14,1.29-.22a23.85,23.85,0,0,0,3-.94c.83-.31,1.54-.62,2.24-.92,2.74-1.24,5-2.53,7.38-3.84s4.5-2.69,6.69-4.07c4.35-2.82,8.53-5.67,12.64-8.87A9.024,9.024,0,0,0,322.26,287Z" fill="#407bff"/>
      <path id="Path_265" data-name="Path 265" d="M322.16,287.11c-4,2.73-8,5.66-12,8.46-2,1.43-4,2.8-5.92,4.15s-3.92,2.64-5.66,3.67c-.42.26-.85.5-1.17.68s-.57.28-.51.32a1.418,1.418,0,0,1,.36,0h-.21l-.82.15-1.69.31c-2.29.42-4.7.76-7.12,1.16-4.84.77-9.82,1.52-14.75,2.62h-.09a4.58,4.58,0,0,0-.12,8.9,103.066,103.066,0,0,0,15.35,2.55c2.59.25,5.21.38,7.92.43h3.83c.43-.06.86-.14,1.29-.22a23.85,23.85,0,0,0,3-.94c.83-.31,1.54-.62,2.24-.92,2.74-1.24,5-2.53,7.38-3.84s4.5-2.69,6.69-4.07c4.35-2.82,8.53-5.67,12.64-8.87A9.024,9.024,0,0,0,322.26,287Z" fill="#fff" opacity="0.7"/>
      <path id="Path_266" data-name="Path 266" d="M296.93,304.39s6.47,9.73,5,15.56l2-.66s-.54-10.72-6.47-15.22Z" fill="#407bff"/>
      <path id="Path_267" data-name="Path 267" d="M270.72,309.13l-8.67,1.08,5.23,8.16s7.67-1.43,6.77-5.36Z" fill="#407bff"/>
      <path id="Path_268" data-name="Path 268" d="M255.27,315.59l6.88,5.49,5.13-2.71-5.23-8.16Z" fill="#407bff"/>
      <g id="Group_3" data-name="Group 3" opacity="0.5">
        <path id="Path_269" data-name="Path 269" d="M270.72,309.13l-8.67,1.08,5.23,8.16s7.67-1.43,6.77-5.36Z" fill="#fff"/>
        <path id="Path_270" data-name="Path 270" d="M255.27,315.59l6.88,5.49,5.13-2.71-5.23-8.16Z" fill="#fff"/>
      </g>
      <path id="Path_271" data-name="Path 271" d="M270.72,309.13s3.55,4.33.6,8l1.17.48s4.71-3,.21-8.92Z" fill="#407bff"/>
      <path id="Path_272" data-name="Path 272" d="M296.93,304.39s6.47,9.73,5,15.56l2-.66s-.54-10.72-6.47-15.22Z" fill="#fff" opacity="0.4"/>
      <path id="Path_273" data-name="Path 273" d="M270.72,309.13s3.55,4.33.6,8l1.17.48s4.71-3,.21-8.92Z" fill="#fff" opacity="0.4"/>
      <path id="Path_274" data-name="Path 274" d="M343,170.26l-1.46,8.5c0,.42-1.83,1.31-2.26,1.28h0l-9.63-.54a1.92,1.92,0,0,1-1.68-2.11c.57-4.2,1-6.18,1.72-11.48.4-3.26.87-9.74,2.11-14.11s5.53-3,5.39-1.07c-.32,4.65,1.93,11.3,3.95,14.61C341.5,165.92,343.11,169.59,343,170.26Z" fill="#407bff"/>
      <path id="Path_275" data-name="Path 275" d="M343.86,170.79l-2.94,8.72c0,.42-1.19.56-1.62.53h0l-9.63-.54a1.92,1.92,0,0,1-1.68-2.11c.57-4.2,1-6.18,1.72-11.48.4-3.26.87-9.74,2.11-14.11s5.53-3,5.39-1.07c-.32,4.65,1.93,11.3,3.95,14.61C341.5,165.92,343.94,170.12,343.86,170.79Z" fill="#fff" opacity="0.5"/>
      <path id="Path_276" data-name="Path 276" d="M380.09,243.22c1-4.92,4.78-23.4,4.19-35.15C381.42,212.91,375,225,374,237.46,373.45,243.66,376.27,244.93,380.09,243.22Z" opacity="0.1"/>
      <path id="Path_277" data-name="Path 277" d="M349.78,251.82s2.64-19,22.59-22.49c0,0,14.38-18.34,32.46-36.74l-9.67-50.37L405.61,137s22.2,37.77,18.92,62.44-39.8,59.67-39.8,59.67Z" fill="#407bff"/>
      <path id="Path_278" data-name="Path 278" d="M349.78,251.82s2.64-19,22.59-22.49c0,0,14.38-18.34,32.46-36.74l-9.67-50.37L405.61,137s22.2,37.77,18.92,62.44-39.8,59.67-39.8,59.67Z" fill="#fff" opacity="0.7"/>
      <path id="Path_279" data-name="Path 279" d="M383.18,232.13a6.83,6.83,0,0,1-6.36,6.8l-24,1.67a6.83,6.83,0,0,1-7-4.77,6.719,6.719,0,0,1-.3-1.57v-.48a6.82,6.82,0,0,1,6.35-6.8l24-1.67a6.84,6.84,0,0,1,7.28,6.34A4.258,4.258,0,0,1,383.18,232.13Z" fill="#407bff"/>
      <path id="Path_280" data-name="Path 280" d="M382,230a6.83,6.83,0,0,1-6.35,6.8l-24,1.67a6.81,6.81,0,0,1-5.83-2.59,6.721,6.721,0,0,1-.3-1.57q0-.24,0-.48a6.82,6.82,0,0,1,6.35-6.8l24-1.67a6.81,6.81,0,0,1,5.83,2.59,6.72,6.72,0,0,1,.3,1.57Q382,229.685,382,230Z" fill="#fff" opacity="0.2"/>
      <path id="Path_281" data-name="Path 281" d="M386.82,261a17.16,17.16,0,0,0-12.15-16.11c-12.53-4.3-10.71,11.29-10.71,11.29l22.34,5.74Z" fill="#407bff"/>
      <path id="Path_282" data-name="Path 282" d="M386.82,261a17.16,17.16,0,0,0-12.15-16.11c-12.53-4.3-10.71,11.29-10.71,11.29l22.34,5.74Z" fill="#fff" opacity="0.4"/>
      <path id="Path_283" data-name="Path 283" d="M370.88,245.84s12.63,3,15.18,13.34-15.16,33-22.53,37-36.83,7.87-40.33,3.66c-12.06-14.5,13.8-38.03,22.69-43.84S370.88,245.84,370.88,245.84Z" fill="#407bff"/>
      <path id="Path_284" data-name="Path 284" d="M323.2,299.86a2.38,2.38,0,0,0,.58.49c2.29,1.46,8.63,1.61,15.68,1,8.87-.77,18.87-2.73,23.35-4.81l.72-.35c5.69-3.11,17.56-17.35,21.49-28.42,1.16-3.26,1.62-6.25,1-8.6-2.55-10.32-15.18-13.34-15.18-13.34s-16.09,4.43-25,10.2S311.14,285.33,323.2,299.86Z" fill="#fff" opacity="0.7"/>
      <path id="Path_285" data-name="Path 285" d="M323.78,300.35c2.29,1.46,8.63,1.61,15.68,1,14.56-15.67,6.25-27.7,6.25-27.7C333.46,272.54,324.85,289.39,323.78,300.35Z" opacity="0.1"/>
      <path id="Path_286" data-name="Path 286" d="M380.09,243.22S378,232.3,375.5,231s-29.22,1.07-32.64,2.36-21.9,17.45-23.14,22,4.36,16.38,4.36,16.38,19.12,3.82,26.92.57S378.08,249.2,380.09,243.22Z" fill="#407bff"/>
      <path id="Path_287" data-name="Path 287" d="M324.08,271.73s19.12,3.81,26.92.56,27.09-23.08,29.08-29.07c0,0-2.13-10.92-4.58-12.26s-29.21,1.08-32.64,2.36-21.9,17.46-23.13,22a9.831,9.831,0,0,0,.1,4.19C320.82,264.82,324.08,271.73,324.08,271.73Z" fill="#fff" opacity="0.5"/>
      <path id="Path_288" data-name="Path 288" d="M319.83,259.53c2.59.49,19.4,3.51,26.59.51C354.21,256.78,373.5,237,375.5,231c-2.45-1.33-29.21,1.08-32.64,2.36s-21.9,17.46-23.13,22a9.83,9.83,0,0,0,.1,4.17Z" fill="#fff" opacity="0.2"/>
      <circle id="Ellipse_23" data-name="Ellipse 23" cx="24.92" cy="24.92" r="24.92" transform="matrix(0.753, -0.658, 0.658, 0.753, 285.452, 276.898)" fill="#263238"/>
      <circle id="Ellipse_24" data-name="Ellipse 24" cx="24.92" cy="24.92" r="24.92" transform="matrix(0.753, -0.658, 0.658, 0.753, 285.452, 276.898)" fill="#fff" opacity="0.7"/>
      <path id="Path_289" data-name="Path 289" d="M329,301.64a23.92,23.92,0,1,0-30.78-14A23.92,23.92,0,0,0,329,301.64Z" opacity="0.2"/>
      <ellipse id="Ellipse_25" data-name="Ellipse 25" cx="17.98" cy="13.42" rx="17.98" ry="13.42" transform="matrix(0.242, -0.97, 0.97, 0.242, 314.697, 296.985)" opacity="0.3"/>
      <path id="Path_290" data-name="Path 290" d="M324,291.76s4.66,4.59,6.05,3.44,4.08,2.39,6.33.38,6.66-7.88,4.43-13.4S324.49,283.49,324,291.76Z" fill="#263238"/>
      <path id="Path_291" data-name="Path 291" d="M324,291.76s4.67,4.59,6.05,3.44a1.45,1.45,0,0,1,1.44-.1c1.42.49,3.27,1.93,4.89.48,2.25-2,6.65-7.88,4.43-13.4-.95-2.37-4.09-2.46-7.41-1.15a17.352,17.352,0,0,0-2.59,1.29c-3.38,2.06-6.38,5.39-6.78,9A2.946,2.946,0,0,1,324,291.76Z" fill="#fff" opacity="0.8"/>
      <path id="Path_292" data-name="Path 292" d="M324,291.76s4.67,4.59,6.05,3.44a1.45,1.45,0,0,1,1.44-.1c5.55-3.32,3-11.27,1.91-14.07a17.35,17.35,0,0,0-2.59,1.29,51.1,51.1,0,0,0-6.78,9A2.946,2.946,0,0,1,324,291.76Z" opacity="0.2"/>
      <path id="Path_293" data-name="Path 293" d="M314,291.38a2.83,2.83,0,0,0,.51,0c4.78-.23,3.45-9.8,1.13-15.27-1-2.42-2.43-3.53-3.7-3.59-1.62-.09-3,1.49-3.3,4.17-.18,1.8,1,4.27.8,5.47S309.73,291,314,291.38Z" fill="#263238"/>
      <path id="Path_294" data-name="Path 294" d="M314,291.38a2.83,2.83,0,0,0,.51,0c4.78-.23,3.45-9.8,1.13-15.27-1-2.42-2.43-3.53-3.7-3.59-1.62-.09-3,1.49-3.3,4.17-.18,1.8,1,4.27.8,5.47S309.73,291,314,291.38Z" fill="#fff" opacity="0.9"/>
      <path id="Path_295" data-name="Path 295" d="M314,291.38a2.83,2.83,0,0,0,.51,0c4.78-.23,3.45-9.8,1.13-15.27-1-2.42-2.43-3.53-3.7-3.59a8,8,0,0,0-1,.86c-1.59,1.57,0,7.67,0,9.27C310.83,284.12,311.38,289,314,291.38Z" opacity="0.2"/>
      <path id="Path_296" data-name="Path 296" d="M331.13,275.2c1.84,7.22,3.28,11.36.86,16.11-3.65,7.15-13.48,6.63-17.45.09-3.57-5.89-6-16.71.08-21.69a10.28,10.28,0,0,1,16.51,5.49Z" fill="#ebb376"/>
      <path id="Path_297" data-name="Path 297" d="M321,280.53c.18.58,0,1.14-.35,1.26s-.84-.25-1-.83,0-1.14.35-1.26S320.78,280,321,280.53Z" fill="#263238"/>
      <path id="Path_298" data-name="Path 298" d="M314.42,282.57c.18.57,0,1.14-.35,1.26s-.84-.26-1-.84,0-1.14.35-1.25S314.23,282,314.42,282.57Z" fill="#263238"/>
      <path id="Path_299" data-name="Path 299" d="M316.59,282.21a21,21,0,0,1-1.28,5.63,3.57,3.57,0,0,0,2.9-.39Z" fill="#d58745"/>
      <path id="Path_300" data-name="Path 300" d="M319.1,276.71a.4.4,0,0,1,.37,0,2.88,2.88,0,0,0,2.55.38.36.36,0,0,1,.47.19.34.34,0,0,1-.18.46,3.58,3.58,0,0,1-3.24-.44.36.36,0,0,1-.1-.49.489.489,0,0,1,.13-.1Z" fill="#263238"/>
      <path id="Path_301" data-name="Path 301" d="M312.41,278.28a.37.37,0,0,1,.21,0,.35.35,0,0,1,.24.44,3.53,3.53,0,0,1-2.2,2.37.38.38,0,0,1-.45-.24.35.35,0,0,1,.24-.44,2.77,2.77,0,0,0,1.73-1.9.32.32,0,0,1,.23-.23Z" fill="#263238"/>
      <path id="Path_302" data-name="Path 302" d="M323.64,291.05c-.16.11-.34.22-.52.32l-3.51-1.78s.13-.2.35-.49c.72-1,2.45-3.14,4-3a2.8,2.8,0,0,1,.52.13,2.73,2.73,0,0,1,1.5,1.17C326.45,288.29,326.14,289.51,323.64,291.05Z" fill="#263238"/>
      <path id="Path_303" data-name="Path 303" d="M324.5,286.28l-4.09,3-.45-.15c.72-1,2.45-3.14,4-3A2.8,2.8,0,0,1,324.5,286.28Z" fill="#fff"/>
      <path id="Path_304" data-name="Path 304" d="M323.64,291.05c-.67-1.47,1.16-2.9,2.36-3.6C326.45,288.29,326.14,289.51,323.64,291.05Z" fill="#de5753"/>
      <path id="Path_305" data-name="Path 305" d="M322.82,295.25l-.31-.95c.92-.31,3.48-1.3,4.31-2.19a52.894,52.894,0,0,0,3.86-6.53l.89.47c-.12.22-2.88,5.52-4,6.74S323,295.2,322.82,295.25Z" fill="#263238"/>
      <path id="Path_306" data-name="Path 306" d="M322.87,295.44l1.05-.4a.71.71,0,0,0,.42-.91h0a.72.72,0,0,0-.92-.41l-1.05.39a.71.71,0,0,0-.41.91h0A.71.71,0,0,0,322.87,295.44Z" fill="#263238"/>
      <path id="Path_307" data-name="Path 307" d="M335.75,280.22a7,7,0,0,1-2.07,5c-1.77,1.73-3.87.42-4.38-1.87-.47-2.07-.11-5.45,2.16-6.32a3.21,3.21,0,0,1,4.29,3.19Z" fill="#ebb376"/>
      <path id="Path_308" data-name="Path 308" d="M314.85,272.22c2.2-.7,7.95-1.67,9.23-.5s3.95,15.17,6.81,16,7.9-3.87,7.48-8.11a9.5,9.5,0,0,0-3.06-6.3s-.76-11.14-12.37-10.28-14.43,10.36-14.27,13.68A12.21,12.21,0,0,1,314.85,272.22Z" fill="#263238"/>
      <path id="Path_309" data-name="Path 309" d="M314.85,272.22c2.2-.7,7.95-1.67,9.23-.5s3.95,15.17,6.81,16,7.9-3.87,7.48-8.11a9.5,9.5,0,0,0-3.06-6.3s-.76-11.14-12.37-10.28-14.43,10.36-14.27,13.68A12.21,12.21,0,0,1,314.85,272.22Z" fill="#fff" opacity="0.9"/>
      <path id="Path_310" data-name="Path 310" d="M305.89,258.14l1.54-.42a28.69,28.69,0,0,1,14.6-4.26c8.94-.27,22.11,7.83,24.34,23.52.09.6.15,1.15.19,1.66a12,12,0,0,1,.09,1.37v.05a11.127,11.127,0,0,1-.07,1.71c-.82,9.43-8.66,16.53-8.66,16.53a30.74,30.74,0,0,1-10.2,6.33L326,303.58c16.07-6.46,13.62-24.06,13.62-24.06l-5.46-10.33s-14.61-16.61-31.84-6.83l-.71-.62a30.783,30.783,0,0,1,4.28-3.6Z" fill="#407bff"/>
      <path id="Path_311" data-name="Path 311" d="M301.58,261.74l.7.61c17.24-9.77,31.84,6.84,31.84,6.84l5.46,10.33S342,297.12,326,303.58l1.77,1.06a31.393,31.393,0,0,0,4.58-2.18,26.782,26.782,0,0,0,5.61-4.16s7.84-7.1,8.66-16.53a10,10,0,0,0,.07-1.71.13.13,0,0,1,0-.06,11.9,11.9,0,0,0-.1-1.36c-.05-.44-.1-1.05-.19-1.66-2.22-15.7-15.4-23.79-24.34-23.52a28.89,28.89,0,0,0-14.51,4.2l-.09.06-1.54.42a30.481,30.481,0,0,0-4.34,3.6Z" fill="#fff" opacity="0.7"/>
      <path id="Path_312" data-name="Path 312" d="M301.58,261.74l.7.61c17.24-9.77,31.84,6.84,31.84,6.84l5.46,10.33S342,297.12,326,303.58l1.77,1.06a31.393,31.393,0,0,0,4.58-2.18c4.32-3.86,11.49-15.85,8.29-22.39A65.219,65.219,0,0,1,336,267.83s-12.91-14.15-28.5-10.17c-.53.13-1.08.3-1.63.48a30.483,30.483,0,0,0-4.29,3.6Z" opacity="0.2"/>
      <path id="Path_313" data-name="Path 313" d="M335.12,268c1.72-.64,3.72.05,5.4,1.63a7.59,7.59,0,0,1,3.53,9.45c-.23,2.29-1.28,4.12-3,4.77-2.9,1.08-6.57-1.59-8.21-6S332.23,269.12,335.12,268Z" fill="#407bff"/>
      <path id="Path_314" data-name="Path 314" d="M335.12,268c1.72-.64,3.72.05,5.4,1.63a7.59,7.59,0,0,1,3.53,9.45c-.23,2.29-1.28,4.12-3,4.77-2.9,1.08-6.57-1.59-8.21-6S332.23,269.12,335.12,268Z" fill="#fff" opacity="0.5"/>
      <path id="Path_315" data-name="Path 315" d="M336.83,276.43c1.13,3,3.67,4.87,5.68,4.12s2.7-3.81,1.57-6.84-3.67-4.87-5.67-4.12S335.7,273.4,336.83,276.43Z" fill="#fff" opacity="0.2"/>
      <path id="Path_316" data-name="Path 316" d="M301.36,268.77a34.455,34.455,0,0,1,5.19,1.13,32.13,32.13,0,0,1,7.64-7.51s-2.68-1.26-7.8-.08A22.319,22.319,0,0,0,301.36,268.77Z" fill="#fff" opacity="0.2"/>
      <path id="Path_317" data-name="Path 317" d="M300.14,287.42a34.6,34.6,0,0,1,5.37-16c-1.64-.72-3.23-1.38-4.52-1.88C298.81,274.28,297.2,280.81,300.14,287.42Z" fill="#fff" opacity="0.2"/>
      <path id="Path_318" data-name="Path 318" d="M406.66,139.11l-10.21,6.58a.76.76,0,0,1-1.07-.18h0l-5.71-7.77a1.91,1.91,0,0,1,.55-2.63c3.6-2.24,5.44-3.13,10-6,2.77-1.77,8.06-5.53,12.22-7.36s5.86,2.34,4.26,3.48c-3.79,2.72-7.48,8.68-8.75,12.35a3,3,0,0,1-1.29,1.53Z" fill="#407bff"/>
      <path id="Path_319" data-name="Path 319" d="M406.66,139.11l-10.21,6.58a.76.76,0,0,1-1.07-.18h0l-5.71-7.77a1.91,1.91,0,0,1,.55-2.63c3.6-2.24,5.44-3.13,10-6,2.77-1.77,8.06-5.53,12.22-7.36s5.86,2.34,4.26,3.48c-3.79,2.72-7.48,8.68-8.75,12.35a3,3,0,0,1-1.29,1.53Z" fill="#fff" opacity="0.5"/>
      <path id="Path_320" data-name="Path 320" d="M407.66,138.07l.78,2.09-13.07,6.5-.66-1.75Z" fill="#407bff"/>
      <path id="Path_321" data-name="Path 321" d="M341,165s3.06,9.84-2.31,15.37l1.84,1.17s6.6-6.74,2.61-15.38Z" fill="#407bff"/>
      <path id="Path_322" data-name="Path 322" d="M404.17,193.26l.4-2s8.61-5.86,20.23.48v4.28S415,189.13,404.17,193.26Z" fill="#407bff"/>
      <path id="Path_323" data-name="Path 323" d="M382.35,199.25s-10.66,14.29-21,10l-.34-2s9.33,3.46,19.31-10.51Z" fill="#407bff"/>
      <path id="Path_324" data-name="Path 324" d="M362.81,296.55l.72-.35c5.69-3.11,17.56-17.35,21.49-28.42-6,1.62-21.34,6.05-26.11,10.58C353.26,283.72,356,294.77,362.81,296.55Z" opacity="0.1"/>
      <path id="Path_325" data-name="Path 325" d="M341,165s3.06,9.84-2.31,15.37l1.84,1.17s6.6-6.74,2.61-15.38Z" fill="#fff" opacity="0.4"/>
      <path id="Path_326" data-name="Path 326" d="M382.35,199.25s-10.66,14.29-21,10l-.34-2s9.33,3.46,19.31-10.51Z" fill="#fff" opacity="0.4"/>
      <path id="Path_327" data-name="Path 327" d="M407.66,138.07l.78,2.09-13.07,6.5-.66-1.75Z" fill="#fff" opacity="0.4"/>
      <path id="Path_328" data-name="Path 328" d="M404.17,193.26l.4-2s8.61-5.86,20.23.48v4.28S415,189.13,404.17,193.26Z" fill="#fff" opacity="0.4"/>
      <path id="Path_329" data-name="Path 329" d="M380.09,281.18a1.5,1.5,0,0,1-.73-2.81c3.67-2,5.63-4.59,6-7.85,1.15-9.9-12.65-22.5-12.79-22.63a1.5,1.5,0,1,1,2-2.22c.62.56,15.08,13.78,13.76,25.2-.49,4.23-3,7.64-7.54,10.12a1.46,1.46,0,0,1-.7.19Z" fill="#407bff"/>
      <path id="Path_330" data-name="Path 330" d="M378.33,287a1.51,1.51,0,0,1-1.26-2.32c9.78-15.11-8.61-28.56-9.4-29.12a1.5,1.5,0,0,1,1.75-2.44c.21.15,21.5,15.68,10.17,33.19a1.48,1.48,0,0,1-1.26.69Z" fill="#407bff"/>
      <path id="Path_331" data-name="Path 331" d="M363.49,295.77c4.71-1.07,9.54-2.3,14.26-3.43,2.36-.59,4.71-1.13,7-1.66s4.62-1,6.62-1.32c.49-.08,1-.15,1.34-.19s.63-.06.59-.12a1.06,1.06,0,0,1-.3-.05h.22l.81.16,1.69.34c2.28.46,4.64,1,7,1.56,4.78,1.07,9.69,2.22,14.68,3h.08a4.58,4.58,0,0,0,3.41-8.22,101.625,101.625,0,0,0-13.32-8.05c-2.31-1.2-4.69-2.29-7.19-3.33-.63-.27-1.25-.52-1.92-.75l-1-.36-.25-.09h-.13l-.31-.08c-.42-.1-.85-.19-1.28-.27a23,23,0,0,0-3.16-.25h-2.42c-3,.13-5.63.48-8.28.83s-5.18.83-7.72,1.3c-5.09,1-10,2.12-15,3.57a9,9,0,1,0,4.47,17.44Z" fill="#407bff"/>
      <path id="Path_332" data-name="Path 332" d="M363.49,295.77c4.71-1.07,9.54-2.3,14.26-3.43,2.36-.59,4.71-1.13,7-1.66s4.62-1,6.62-1.32c.49-.08,1-.15,1.34-.19s.63-.06.59-.12a1.06,1.06,0,0,1-.3-.05h.22l.81.16,1.69.34c2.28.46,4.64,1,7,1.56,4.78,1.07,9.69,2.22,14.68,3h.08a4.58,4.58,0,0,0,3.41-8.22,101.625,101.625,0,0,0-13.32-8.05c-2.31-1.2-4.69-2.29-7.19-3.33-.63-.27-1.25-.52-1.92-.75l-1-.36-.25-.09h-.13l-.31-.08c-.42-.1-.85-.19-1.28-.27a23,23,0,0,0-3.16-.25h-2.42c-3,.13-5.63.48-8.28.83s-5.18.83-7.72,1.3c-5.09,1-10,2.12-15,3.57a9,9,0,1,0,4.47,17.44Z" fill="#fff" opacity="0.7"/>
      <path id="Path_333" data-name="Path 333" d="M419.38,287l8.7-.8-3.36,9.08s-7.81.25-7.76-3.78Z" fill="#407bff"/>
      <path id="Path_334" data-name="Path 334" d="M435.85,289.98l-5.54,6.83-5.59-1.56,3.36-9.08Z" fill="#407bff"/>
      <g id="Group_4" data-name="Group 4" opacity="0.5">
        <path id="Path_335" data-name="Path 335" d="M419.38,287l8.7-.8-3.36,9.08s-7.81.25-7.76-3.78Z" fill="#fff"/>
        <path id="Path_336" data-name="Path 336" d="M435.85,289.98l-5.54,6.83-5.59-1.56,3.36-9.08Z" fill="#fff"/>
      </g>
      <path id="Path_337" data-name="Path 337" d="M422.05,286.72s-4.78,2.5-3.35,7.39l-2-.17s-2.44-4.8,4.25-8.08Z" fill="#407bff"/>
      <path id="Path_338" data-name="Path 338" d="M361,277.55s-13.33,10.9,1.41,18.41l-1.74.65s-8.05-.36-8.24-9.33C352.23,278.54,361,277.55,361,277.55Z" fill="#407bff"/>
      <path id="Path_339" data-name="Path 339" d="M395.52,272.88s-4.59,5.94-2.19,16.17l-1.22.2a21.6,21.6,0,0,1,2-16.53Z" fill="#407bff"/>
      <path id="Path_340" data-name="Path 340" d="M422.05,286.72s-4.78,2.5-3.35,7.39l-2-.17s-2.44-4.8,4.25-8.08Z" fill="#fff" opacity="0.4"/>
      <path id="Path_341" data-name="Path 341" d="M361,277.55s-13.33,10.9,1.41,18.41l-1.74.65s-8.05-.36-8.24-9.33C352.23,278.54,361,277.55,361,277.55Z" fill="#fff" opacity="0.4"/>
      <path id="Path_342" data-name="Path 342" d="M395.52,272.88s-4.59,5.94-2.19,16.17l-1.22.2a21.6,21.6,0,0,1,2-16.53Z" fill="#fff" opacity="0.4"/>
      <path id="Path_343" data-name="Path 343" d="M367.75,234.93l-20.23,19.39h-7.07L361,234.93S365.08,232.26,367.75,234.93Z" fill="#407bff"/>
      <path id="Path_344" data-name="Path 344" d="M367.75,234.93l-20.23,19.39a5.24,5.24,0,0,0-7.07,0L361,234.93S365.08,232.26,367.75,234.93Z" fill="#fff" opacity="0.2"/>
      <path id="Path_345" data-name="Path 345" d="M345.32,236.66a6.117,6.117,0,0,1-1,.55,5.36,5.36,0,0,1-1.88.42c-.74,0-1.3-.21-1.49-.64s.21-1.28,1-1.89a5.5,5.5,0,0,1,1.18-.66,4.79,4.79,0,0,1,1.67-.41c.84-.07,1.49.15,1.69.63S346.24,236,345.32,236.66Z" fill="#263238"/>
      <path id="Path_346" data-name="Path 346" d="M294.44,160.81l-.08-.5s2.34-.39,3.12-1.72l.43.25C297,160.38,294.54,160.79,294.44,160.81Z" fill="#fff"/>
      <path id="Path_347" data-name="Path 347" d="M294.53,162l-.26-.43a16,16,0,0,1,6.38-2.14v.5A15.62,15.62,0,0,0,294.53,162Z" fill="#fff"/>
      <path id="Path_348" data-name="Path 348" d="M294.51,162.37l-.22-.45c3.12-1.49,4.52-.75,4.58-.72l-.24.44S297.36,161,294.51,162.37Z" fill="#fff"/>
      <path id="Path_349" data-name="Path 349" d="M345.32,236.66a6.117,6.117,0,0,1-1,.55,5.36,5.36,0,0,1-1.88.42c-.09-.65-.23-1.53-.46-2.53a18.53,18.53,0,0,0-4.33-8.76c-6.68-6.81-14.69-7.35-23.17-7.91-8.11-.54-16.5-1.1-24.09-7.21-7.74-6.23-11.61-17.91-9.88-29.76,1.56-10.63,7.18-18.88,15.05-22.09l1.13,2.78c-6.87,2.8-11.81,10.18-13.21,19.75-1.58,10.81,1.87,21.4,8.79,27s14.41,6,22.41,6.55c8.66.58,17.63,1.18,25.12,8.81a21.29,21.29,0,0,1,5,9.79A24.452,24.452,0,0,1,345.32,236.66Z" fill="#263238"/>
      <g id="Group_5" data-name="Group 5" opacity="0.5">
        <path id="Path_350" data-name="Path 350" d="M345.32,236.66a6.117,6.117,0,0,1-1,.55,5.36,5.36,0,0,1-1.88.42c-.09-.65-.23-1.53-.46-2.53a18.53,18.53,0,0,0-4.33-8.76c-6.68-6.81-14.69-7.35-23.17-7.91-8.11-.54-16.5-1.1-24.09-7.21-7.74-6.23-11.61-17.91-9.88-29.76,1.56-10.63,7.18-18.88,15.05-22.09l1.13,2.78c-6.87,2.8-11.81,10.18-13.21,19.75-1.58,10.81,1.87,21.4,8.79,27s14.41,6,22.41,6.55c8.66.58,17.63,1.18,25.12,8.81a21.29,21.29,0,0,1,5,9.79A24.452,24.452,0,0,1,345.32,236.66Z" fill="#fff"/>
      </g>
    </g>
  </g>
</svg>
