<svg xmlns="http://www.w3.org/2000/svg" xmlns:xlink="http://www.w3.org/1999/xlink" width="182.998" height="207.622" viewBox="0 0 182.998 207.622">
  <defs>
    <linearGradient id="linear-gradient" y1="0.5" x2="1" y2="0.5" gradientUnits="objectBoundingBox">
      <stop offset="0" stop-color="#8a0bff"/>
      <stop offset="1" stop-color="#2a0056"/>
    </linearGradient>
    <linearGradient id="linear-gradient-2" x1="0.5" y1="1" x2="0.5" gradientUnits="objectBoundingBox">
      <stop offset="0" stop-color="#a553ff"/>
      <stop offset="0.999" stop-color="#ae38ff"/>
    </linearGradient>
    <linearGradient id="linear-gradient-3" x1="0.394" y1="0.535" x2="1.345" y2="0.667" gradientUnits="objectBoundingBox">
      <stop offset="0" stop-color="#af53ff"/>
      <stop offset="0.156" stop-color="#ae4dff" stop-opacity="0.796"/>
      <stop offset="0.388" stop-color="#ae45ff" stop-opacity="0.518"/>
      <stop offset="0.597" stop-color="#ae3fff" stop-opacity="0.294"/>
      <stop offset="0.775" stop-color="#ae3bff" stop-opacity="0.133"/>
      <stop offset="0.915" stop-color="#ae38ff" stop-opacity="0.035"/>
      <stop offset="1" stop-color="#ae38ff" stop-opacity="0"/>
    </linearGradient>
    <linearGradient id="linear-gradient-4" x1="-0.665" y1="0.233" x2="1.042" y2="0.684" gradientUnits="objectBoundingBox">
      <stop offset="0" stop-color="#8a0bff"/>
      <stop offset="0.999" stop-color="#2a0056" stop-opacity="0"/>
    </linearGradient>
    <linearGradient id="linear-gradient-5" y1="0.5" x2="1" y2="0.5" gradientUnits="objectBoundingBox">
      <stop offset="0" stop-color="#ff2bcb"/>
      <stop offset="1" stop-color="#df38ff"/>
    </linearGradient>
    <linearGradient id="linear-gradient-6" x1="0" y1="0.5" x2="1" y2="0.5" xlink:href="#linear-gradient-4"/>
  </defs>
  <g id="OBJECTS" transform="translate(11.602 -158.757)">
    <g id="Group_3" data-name="Group 3" transform="translate(-11.602 158.757)">
      <g id="Group_2" data-name="Group 2" transform="translate(0 2.513)">
        <path id="Path_1" data-name="Path 1" d="M206.9,117.861H173.4l68.914,134.73L207.855,322.97h40.569a15.889,15.889,0,0,0,14.27-8.9l24.281-49.594a26.434,26.434,0,0,0-.207-23.66L231.611,132.975A27.755,27.755,0,0,0,206.9,117.861Z" transform="translate(-173.398 -117.861)" fill="url(#linear-gradient)"/>
        <path id="Path_2" data-name="Path 2" d="M226,130.514c27.47,53.708,29.615,80.985,10.7,119.617l-34.457,70.378h40.569a15.889,15.889,0,0,0,14.27-8.9l24.281-49.594a26.434,26.434,0,0,0-.207-23.66Z" transform="translate(-167.788 -115.4)" fill="url(#linear-gradient-2)"/>
        <path id="Path_3" data-name="Path 3" d="M226,130.514c27.47,53.708,29.615,80.985,10.7,119.617l-34.457,70.378h40.569a15.889,15.889,0,0,0,14.27-8.9l24.281-49.594a26.434,26.434,0,0,0-.207-23.66Z" transform="translate(-167.788 -115.4)" fill="url(#linear-gradient-3)" style="mix-blend-mode: overlay;isolation: isolate"/>
        <path id="Path_4" data-name="Path 4" d="M277.676,225.748l-15.563-30.424c1.063,17.43-3.151,33.323-12.2,51.813l-29.752,60.769h19.175A15.888,15.888,0,0,0,253.6,299l24.281-49.594A26.434,26.434,0,0,0,277.676,225.748Z" transform="translate(-164.305 -102.797)" opacity="0.42" fill="url(#linear-gradient-4)"/>
      </g>
      <path id="Path_5" data-name="Path 5" d="M285.083,124.659,260.8,174.254a26.434,26.434,0,0,0,.207,23.66l19.768,38.648,59.145-120.805h-40.57A15.888,15.888,0,0,0,285.083,124.659Z" transform="translate(-156.924 -115.757)" fill="url(#linear-gradient-5)"/>
      <path id="Path_6" data-name="Path 6" d="M321.021,115.757H299.352a15.888,15.888,0,0,0-14.269,8.9L260.8,174.254a26.434,26.434,0,0,0,.207,23.66l10.111,19.766Z" transform="translate(-156.924 -115.757)" opacity="0.32" fill="url(#linear-gradient-6)"/>
    </g>
  </g>
</svg>
