<svg xmlns="http://www.w3.org/2000/svg" width="399.44" height="125.235" viewBox="0 0 399.44 125.235">
  <path id="Path_37" data-name="Path 37" d="M449.757,127.12H50.317v26.463h57.2a9.747,9.747,0,0,1,9.748,9.747v6.641A10.029,10.029,0,0,0,127.3,180h0a10.029,10.029,0,0,0,10.029-10.029v-6.437a9.952,9.952,0,0,1,9.952-9.951H228.2a9.951,9.951,0,0,1,9.951,9.951v13.854a5.945,5.945,0,0,0,5.946,5.945h0a5.945,5.945,0,0,0,5.945-5.945v-9.912a13.893,13.893,0,0,1,13.893-13.893h0a13.893,13.893,0,0,1,13.893,13.893v27.9a12.5,12.5,0,0,0,12.495,12.5h0a12.5,12.5,0,0,0,12.495-12.5V164.668A11.085,11.085,0,0,1,313.9,153.583h41.24a11.085,11.085,0,0,1,11.085,11.085v8.914A6.418,6.418,0,0,0,372.641,180h0a6.419,6.419,0,0,0,6.419-6.418v-8.914a11.085,11.085,0,0,1,11.085-11.085h13.106a12.189,12.189,0,0,1,12.189,12.189v75.961a10.623,10.623,0,0,0,10.623,10.622h0a10.622,10.622,0,0,0,10.622-10.622V166.655a13.072,13.072,0,0,1,13.072-13.072h0Z" transform="translate(-50.317 -127.12)" fill="#cbcbcb"/>
</svg>
