<svg xmlns="http://www.w3.org/2000/svg" width="144.356" height="184.429" viewBox="0 0 144.356 184.429">
  <g id="Group_19" data-name="Group 19" transform="translate(-271.624 -198.451)">
    <g id="Group_8" data-name="Group 8">
      <g id="Group_6" data-name="Group 6">
        <g id="Group_4" data-name="Group 4">
          <path id="Path_38" data-name="Path 38" d="M313.025,240.333a2.3,2.3,0,0,0-2.3,2.3v105.3a2.3,2.3,0,0,0,2.3,2.3h3.213V240.333Z" fill="gray"/>
          <path id="Path_39" data-name="Path 39" d="M319.45,240.333h-3.212V350.245h3.212a2.3,2.3,0,0,0,2.3-2.3v-105.3A2.3,2.3,0,0,0,319.45,240.333Z" fill="#696969"/>
        </g>
        <g id="Group_5" data-name="Group 5">
          <path id="Path_40" data-name="Path 40" d="M338.023,243h-42.8a16.308,16.308,0,0,1-14.742,9.355v5.312h57.543Z" fill="#333"/>
          <rect id="Rectangle_3" data-name="Rectangle 3" width="57.543" height="4.043" transform="translate(280.48 257.667)" fill="#1a1a1a"/>
        </g>
      </g>
      <g id="Group_7" data-name="Group 7">
        <path id="Path_41" data-name="Path 41" d="M327.663,300.342a5.325,5.325,0,0,0-5.325-5.325h-6.1V382.88h11.425Z" fill="#e60000"/>
        <path id="Path_42" data-name="Path 42" d="M310.138,295.017a5.325,5.325,0,0,0-5.325,5.325V382.88h11.425V295.017Z" fill="red"/>
      </g>
    </g>
    <g id="Group_9" data-name="Group 9">
      <path id="Path_43" data-name="Path 43" d="M382.123,277.983a21.561,21.561,0,0,1-8.279,16.994,15.807,15.807,0,0,0-5.99,12.458V382.88h-14.66V307.444a15.589,15.589,0,0,0-5.874-12.379,21.552,21.552,0,0,1,1.713-35.326c1.029-.657,5.7,19.868,5.7,19.868h11.59s4.667-20.56,5.7-19.9A21.578,21.578,0,0,1,382.123,277.983Z" fill="gray"/>
      <path id="Path_44" data-name="Path 44" d="M364.08,382.88h-7.108V314.942a3.554,3.554,0,0,1,3.554-3.554h0a3.554,3.554,0,0,1,3.554,3.554Z" fill="#696969"/>
      <path id="Path_45" data-name="Path 45" d="M372.024,259.7l-3.15,22.566h-16.7l-3.141-22.53c1.029-.657,5.7,19.868,5.7,19.868h11.59S370.986,259.047,372.024,259.7Z" fill="#696969"/>
    </g>
    <g id="Group_12" data-name="Group 12">
      <g id="Group_10" data-name="Group 10">
        <path id="Path_46" data-name="Path 46" d="M392.086,207.869l-3.316,12.813L392,233.165v94.153h3.4V207.869Z" fill="gray"/>
        <path id="Path_47" data-name="Path 47" d="M398.719,207.869H395.4V327.318h3.4V233.165l3.231-12.484Z" fill="#696969"/>
      </g>
      <g id="Group_11" data-name="Group 11">
        <path id="Path_48" data-name="Path 48" d="M384.877,315.863a5.508,5.508,0,0,0-.4,11,12.111,12.111,0,0,0-1.263,5.377V382.88H395.4V315.863Z" fill="red"/>
        <path id="Path_49" data-name="Path 49" d="M411.44,321.374a5.511,5.511,0,0,0-5.511-5.511H395.4V382.88h12.185V332.243a12.111,12.111,0,0,0-1.263-5.377A5.508,5.508,0,0,0,411.44,321.374Z" fill="#e60000"/>
      </g>
    </g>
    <path id="Path_50" data-name="Path 50" d="M350.247,224.633l.83,3.71,3.71.83-3.71.83-.83,3.71-.83-3.71-3.71-.83,3.71-.83Z" fill="#ff9d00"/>
    <path id="Path_51" data-name="Path 51" d="M411.44,284.762l.83,3.71,3.71.83-3.71.83-.83,3.71-.83-3.71-3.71-.83,3.71-.83Z" fill="#ff9d00"/>
    <path id="Path_52" data-name="Path 52" d="M276.164,266.439l.83,3.71,3.71.83-3.71.83-.83,3.71-.83-3.71-3.71-.83,3.71-.83Z" fill="#ff9d00"/>
    <path id="Path_53" data-name="Path 53" d="M287.576,356.77l.83,3.71,3.71.83-3.71.83-.83,3.71-.83-3.71-3.71-.83,3.71-.83Z" fill="#ff9d00"/>
    <path id="Path_54" data-name="Path 54" d="M282.21,275.519l.415,1.855,1.855.415-1.855.415-.415,1.855-.415-1.855-1.855-.415,1.855-.415Z" fill="#ff9d00"/>
    <path id="Path_55" data-name="Path 55" d="M372.024,198.451l.415,1.855,1.855.415-1.855.415-.415,1.855-.415-1.855-1.855-.415,1.855-.415Z" fill="#ff9d00"/>
  </g>
</svg>
