<svg xmlns="http://www.w3.org/2000/svg" width="399.51" height="59.22" viewBox="0 0 399.51 59.22">
  <g id="Group_18" data-name="Group 18" transform="translate(-50.243 -302.1)">
    <g id="Group_2" data-name="Group 2">
      <path id="Path_3" data-name="Path 3" d="M449.753,345.17v12.46l-9.5-.62-.68-.05-13.29-.88-13.56-.89-13.3-.88-13.56-.9-13.3-.88L359,351.64l-13.3-.88-13.56-.9-13.3-.88-13.56-.89-13.3-.88-13.56-.9-13.3-.88-13.56-.89-13.3-.88-13.56-.9-13.3-.88-13.56-.89-13.3-.88-13.56-.9-13.3-.88-13.56-.89-13.29-.88-13.56-.9-13.3-.88-13.57-.89-13.3-.88-13.56-.9-13.23-.87-.07-.01.07-.13V318.76l6.43.43,13.3.88,13.56.9,13.3.88,13.56.89,13.3.88,13.56.9,13.3.88,13.56.89,13.3.88,13.56.9,13.3.88,13.56.89,13.3.88,13.56.9,13.3.88,26.86,1.77,13.56.9,13.29.88,26.87,1.77,13.56.9,13.3.88,13.56.9,26.86,1.77,13.3.88,13.56.9,13.29.88Z" fill="#ff7f00"/>
      <path id="Path_4" data-name="Path 4" d="M56.743,319.19l-6.43,11.91V318.77Z"/>
      <path id="Path_5" data-name="Path 5" d="M83.6,320.969l-6.5,12.038-13.56-.9,6.5-12.038Z"/>
      <path id="Path_6" data-name="Path 6" d="M110.466,322.744l-6.5,12.038-13.56-.9,6.5-12.038Z"/>
      <path id="Path_7" data-name="Path 7" d="M137.327,324.519l-6.5,12.038-13.561-.9,6.5-12.038Z"/>
      <path id="Path_8" data-name="Path 8" d="M164.179,326.294l-6.5,12.038-13.56-.9,6.5-12.038Z"/>
      <path id="Path_9" data-name="Path 9" d="M191.04,328.069l-6.5,12.038-13.56-.9,6.5-12.038Z"/>
      <path id="Path_10" data-name="Path 10" d="M217.9,329.845l-6.5,12.038-13.56-.9,6.5-12.038Z"/>
      <path id="Path_11" data-name="Path 11" d="M244.763,331.62l-6.5,12.038-13.56-.9,6.5-12.038Z"/>
      <path id="Path_12" data-name="Path 12" d="M271.624,333.4l-6.5,12.038-13.56-.9,6.5-12.038Z"/>
      <path id="Path_13" data-name="Path 13" d="M298.486,335.171l-6.5,12.038-13.561-.9,6.5-12.038Z"/>
      <path id="Path_14" data-name="Path 14" d="M325.337,336.946l-6.5,12.038-13.56-.9,6.5-12.038Z"/>
      <path id="Path_15" data-name="Path 15" d="M352.2,338.721l-6.5,12.038-13.56-.9,6.5-12.038Z"/>
      <path id="Path_16" data-name="Path 16" d="M379.06,340.5l-6.5,12.038-13.561-.9,6.5-12.038Z"/>
      <path id="Path_17" data-name="Path 17" d="M405.921,342.272l-6.5,12.038-13.56-.9,6.5-12.038Z"/>
      <path id="Path_18" data-name="Path 18" d="M432.783,344.047l-6.5,12.038-13.56-.9,6.5-12.038Z"/>
      <path id="Path_19" data-name="Path 19" d="M449.753,357.63V345.17l-3.68-.24-6.5,12.03.68.05,9.5.63Z"/>
    </g>
    <g id="Group_3" data-name="Group 3">
      <path id="Path_20" data-name="Path 20" d="M449.753,302.1v12.52l-10.62,1.24-13.23,1.55-13.5,1.58-13.24,1.55-13.5,1.57-13.24,1.55-13.5,1.58-13.24,1.55-13.49,1.57-13.24,1.55-13.5,1.58-13.23,1.55-13.5,1.57v.01l-13.24,1.54-13.5,1.58-13.24,1.55-13.49,1.57v.01l-13.24,1.54-13.5,1.58-13.24,1.55-13.5,1.58-13.24,1.54-7.72.91-5.78.67-13.23,1.55-13.5,1.58-13.24,1.54-13.49,1.58-13.24,1.55-13.5,1.58-13.24,1.54-1.28.15V348.79l5.48-.64,13.24-1.54v-.01l13.5-1.57,13.24-1.55,13.5-1.58,13.24-1.55,13.5-1.58,13.23-1.54,13.5-1.58,13.24-1.55,13.49-1.58,13.24-1.54,13.5-1.58,13.24-1.55,13.5-1.58,13.24-1.55,13.5-1.57,13.24-1.55,13.5-1.58,13.23-1.55,13.49-1.57,13.24-1.55,13.5-1.58,13.24-1.55,13.5-1.58,13.24-1.54,13.5-1.58,13.24-1.55,13.5-1.58,13.23-1.54Z" fill="#ff9d00"/>
      <path id="Path_21" data-name="Path 21" d="M55.793,348.15l-4.2,13.01v.01l-1.28.15V348.79Z"/>
      <path id="Path_22" data-name="Path 22" d="M82.536,345.026l-4.207,13.017-13.5,1.578L69.038,346.6Z"/>
      <path id="Path_23" data-name="Path 23" d="M109.274,341.9l-4.207,13.017-13.5,1.578,4.207-13.017Z"/>
      <path id="Path_24" data-name="Path 24" d="M136.011,338.775,131.8,351.791l-13.5,1.578,4.207-13.017Z"/>
      <path id="Path_25" data-name="Path 25" d="M162.739,335.65l-4.207,13.017-13.5,1.578,4.207-13.017Z"/>
      <path id="Path_26" data-name="Path 26" d="M189.477,332.524l-4.207,13.017-13.5,1.578,4.207-13.017Z"/>
      <path id="Path_27" data-name="Path 27" d="M216.215,329.4l-4.207,13.016-13.5,1.578,4.207-13.016Z"/>
      <path id="Path_28" data-name="Path 28" d="M242.953,326.273l-4.207,13.016-13.5,1.578,4.207-13.017Z"/>
      <path id="Path_29" data-name="Path 29" d="M269.691,323.147l-4.207,13.017-13.5,1.578,4.207-13.017Z"/>
      <path id="Path_30" data-name="Path 30" d="M296.429,320.021l-4.207,13.017-13.5,1.578,4.207-13.017Z"/>
      <path id="Path_31" data-name="Path 31" d="M323.157,316.9l-4.207,13.017-13.5,1.578,4.207-13.017Z"/>
      <path id="Path_32" data-name="Path 32" d="M349.895,313.77l-4.207,13.017-13.5,1.578,4.207-13.017Z"/>
      <path id="Path_33" data-name="Path 33" d="M376.633,310.645l-4.207,13.017-13.5,1.578,4.207-13.017Z"/>
      <path id="Path_34" data-name="Path 34" d="M403.371,307.519l-4.207,13.017-13.5,1.578,4.207-13.017Z"/>
      <path id="Path_35" data-name="Path 35" d="M430.109,304.393,425.9,317.409l-13.5,1.578,4.207-13.016Z"/>
      <path id="Path_36" data-name="Path 36" d="M449.753,302.1v12.52l-10.62,1.24,4.21-13.01Z"/>
    </g>
  </g>
</svg>
