<?xml version="1.0" standalone="no"?>
<!DOCTYPE svg PUBLIC "-//W3C//DTD SVG 20010904//EN"
 "http://www.w3.org/TR/2001/REC-SVG-20010904/DTD/svg10.dtd">
<svg version="1.0" xmlns="http://www.w3.org/2000/svg"
 width="180.000000pt" height="180.000000pt" viewBox="0 0 180.000000 180.000000"
 preserveAspectRatio="xMidYMid meet">
<metadata>
Created by potrace 1.14, written by Peter Selinger 2001-2017
</metadata>
<g transform="translate(0.000000,180.000000) scale(0.100000,-0.100000)"
fill="#000000" stroke="none">
<path d="M473 1780 c-76 -19 -173 -59 -173 -72 0 -5 -4 -7 -9 -4 -5 3 -23 -7
-40 -23 -17 -16 -31 -27 -31 -24 0 7 -89 -88 -111 -118 -10 -14 -16 -29 -12
-33 3 -3 2 -6 -4 -6 -6 0 -23 -28 -37 -62 -29 -68 -34 -88 -45 -160 -8 -55 -5
-729 4 -773 3 -16 7 -39 10 -50 2 -11 4 -22 5 -25 1 -3 2 -8 1 -12 0 -5 4 -8
11 -8 6 0 9 -3 5 -6 -3 -4 3 -25 15 -48 11 -22 20 -43 19 -45 -2 -2 4 -8 13
-13 9 -5 16 -15 16 -22 0 -7 9 -21 20 -31 11 -10 17 -22 14 -26 -3 -5 2 -9 11
-9 8 0 20 -10 25 -23 5 -12 9 -17 10 -12 0 6 14 -5 30 -24 17 -18 30 -31 30
-27 0 4 7 1 15 -6 34 -31 50 -43 52 -40 2 1 17 -5 34 -14 17 -8 38 -17 47 -20
10 -2 42 -11 72 -20 74 -21 749 -27 850 -7 77 15 234 89 224 105 -4 7 -2 8 5
4 18 -12 134 116 174 192 69 133 71 145 72 562 2 425 -2 459 -65 586 -80 163
-213 265 -420 322 -8 2 -184 5 -392 6 -321 2 -386 0 -445 -14z"/>
</g>
</svg>
